<?xml version="1.0" encoding="utf-8"?>
<!-- Generator: Adobe Illustrator 23.0.2, SVG Export Plug-In . SVG Version: 6.00 Build 0)  -->
<svg version="1.1" id="Layer_1" xmlns="http://www.w3.org/2000/svg" xmlns:xlink="http://www.w3.org/1999/xlink" x="0px" y="0px"
	 viewBox="0 0 156 120" style="enable-background:new 0 0 156 120;" xml:space="preserve">
<style type="text/css">
	.st0{fill:#DDDDDD;}
	.st1{clip-path:url(#SVGID_2_);}
	.st2{fill:#CCCCCC;}
	.st3{fill:#C1C1C1;}
	.st4{fill:#CECECE;}
	.st5{fill:#A5A5A5;}
	.st6{fill:#83B3E2;}
</style>
<g>
	<g>
		<path class="st0" d="M23.7,120h-4V39.1c0-11,8.9-19.9,19.9-19.9s19.9,8.9,19.9,19.9h-4c0-8.7-7.1-15.9-15.9-15.9
			s-15.9,7.1-15.9,15.9V120z"/>
	</g>
	<g>
		<defs>
			<path id="SVGID_1_" d="M23.7,120h-4V39.1c0-11,8.9-19.9,19.9-19.9s19.9,8.9,19.9,19.9h-4c0-8.7-7.1-15.9-15.9-15.9
				s-15.9,7.1-15.9,15.9V120z"/>
		</defs>
		<clipPath id="SVGID_2_">
			<use xlink:href="#SVGID_1_"  style="overflow:visible;"/>
		</clipPath>
		<g class="st1">
			<path class="st2" d="M25.7,122h-4V39.5c0-11,8.1-18.3,19-18.3c9.5,0,17.6,8.9,17.6,19.9h-4c0-8.7-4.1-15.9-12.8-15.9
				s-15.9,7.1-15.9,15.9V122z"/>
		</g>
	</g>
	<g>
		<g>
			<ellipse transform="matrix(0.866 -0.5 0.5 0.866 -8.8766 33.0008)" class="st0" cx="57.1" cy="33.1" rx="19.1" ry="13"/>
			<ellipse transform="matrix(0.866 -0.5 0.5 0.866 -10.2727 34.563)" class="st3" cx="59.4" cy="36.5" rx="21.3" ry="14.5"/>
			<g>
				<path class="st4" d="M61.2,38.1c4.8-5.4,8.3-11.3,10.2-17.2c-5.3-1.8-12.6-0.9-19.3,3c-10.2,5.9-15.2,16.3-11.2,23.2
					c0.8,1.4,2,2.6,3.3,3.5C50.2,48,56.1,43.8,61.2,38.1z"/>
			</g>
		</g>
		<g>
			<g>
				<g>
					<path class="st5" d="M56.6,26.4c0,0.1,0,0.3,0,0.4c0,1.3,2,1.3,2,0c0-0.1,0-0.3,0-0.4C58.6,25.1,56.6,25.1,56.6,26.4L56.6,26.4
						z"/>
				</g>
			</g>
			<g>
				<g>
					<path class="st5" d="M64,26.7c0,0.1,0,0.2-0.1,0.3c-0.1,0.5,0.2,1.1,0.7,1.2c0.5,0.1,1.1-0.2,1.2-0.7c0-0.1,0-0.2,0.1-0.3
						c0.1-0.5-0.2-1.1-0.7-1.2C64.7,25.9,64.1,26.2,64,26.7L64,26.7z"/>
				</g>
			</g>
			<g>
				<g>
					<path class="st5" d="M56.5,32.5c0,0.1,0,0.2-0.1,0.3c-0.3,1.2,1.6,1.8,1.9,0.5c0-0.1,0-0.2,0.1-0.3
						C58.8,31.8,56.8,31.3,56.5,32.5L56.5,32.5z"/>
				</g>
			</g>
			<g>
				<g>
					<path class="st5" d="M63.8,33.7c0,0.3,0,0.5,0,0.8c0,1.3,2,1.3,2,0c0-0.3,0-0.5,0-0.8C65.8,32.4,63.8,32.4,63.8,33.7L63.8,33.7
						z"/>
				</g>
			</g>
			<g>
				<g>
					<path class="st5" d="M51.6,29.6c0,0.1,0,0.2-0.1,0.3c-0.1,0.5,0.2,1.1,0.7,1.2c0.5,0.1,1.1-0.2,1.2-0.7c0-0.1,0-0.2,0.1-0.3
						c0.1-0.5-0.2-1.1-0.7-1.2C52.4,28.7,51.7,29,51.6,29.6L51.6,29.6z"/>
				</g>
			</g>
			<g>
				<g>
					<path class="st5" d="M46.8,37.6c0,0.1,0,0.2-0.1,0.3c-0.3,1.2,1.6,1.8,1.9,0.5c0-0.1,0-0.2,0.1-0.3
						C49,36.9,47.1,36.4,46.8,37.6L46.8,37.6z"/>
				</g>
			</g>
			<g>
				<g>
					<path class="st5" d="M52.6,40.3c0,0.1,0,0.1,0,0.2c0,1.3,2,1.3,2,0c0-0.1,0-0.1,0-0.2C54.6,39,52.6,39,52.6,40.3L52.6,40.3z"/>
				</g>
			</g>
			<g>
				<g>
					<path class="st5" d="M59.1,42.2c0,0.1,0,0.2,0,0.3c0,1.3,2,1.3,2,0c0-0.1,0-0.2,0-0.3C61.1,40.9,59.1,40.9,59.1,42.2L59.1,42.2
						z"/>
				</g>
			</g>
			<g>
				<g>
					<path class="st5" d="M42.8,41.9c0,0.1,0,0.2,0,0.3c0,1.3,2,1.3,2,0c0-0.1,0-0.2,0-0.3C44.8,40.6,42.8,40.6,42.8,41.9L42.8,41.9
						z"/>
				</g>
			</g>
			<g>
				<g>
					<path class="st5" d="M48.4,45.7c0,0.1,0,0.3-0.1,0.4c-0.1,0.5,0.1,1.1,0.7,1.2c0.5,0.1,1.1-0.2,1.2-0.7c0-0.1,0-0.3,0.1-0.4
						c0.1-0.5-0.1-1.1-0.7-1.2C49.2,44.8,48.5,45.1,48.4,45.7L48.4,45.7z"/>
				</g>
			</g>
			<g>
				<g>
					<path class="st5" d="M54.9,49.2c0,0,0,0.1,0,0.1c0,1.3,2,1.3,2,0c0,0,0-0.1,0-0.1C56.9,47.9,54.9,47.9,54.9,49.2L54.9,49.2z"/>
				</g>
			</g>
			<g>
				<g>
					<path class="st5" d="M67,46.3c0.1-0.2,0.1-0.5,0.1-0.8c0-0.5-0.4-1-1-1c-0.5,0-1,0.5-1,1c0,0.1,0,0.2,0,0.2
						c-0.2,0.5,0.2,1.1,0.7,1.2C66.3,47.2,66.8,46.8,67,46.3L67,46.3z"/>
				</g>
			</g>
			<g>
				<g>
					<path class="st5" d="M71.1,40c0-0.2-0.1-0.4-0.1-0.6c-0.3-1.2-2.3-0.7-1.9,0.5c0,0.2,0.1,0.4,0.1,0.6
						C69.5,41.8,71.4,41.2,71.1,40L71.1,40z"/>
				</g>
			</g>
			<g>
				<g>
					<path class="st5" d="M73.5,34.3c0,0,0,0.1,0,0.1c0,1.3,2,1.3,2,0c0,0,0-0.1,0-0.1C75.5,33,73.5,33,73.5,34.3L73.5,34.3z"/>
				</g>
			</g>
			<g>
				<g>
					<path class="st5" d="M68.8,30.4c0,0.1,0.1,0.2,0.1,0.3c0.6,1.1,2.3,0.1,1.7-1c0-0.1-0.1-0.2-0.1-0.3
						C69.9,28.3,68.2,29.3,68.8,30.4L68.8,30.4z"/>
				</g>
			</g>
			<g>
				<g>
					<path class="st5" d="M70,24.7c0.1,0.1,0.1,0.3,0.2,0.4c0.6,1.1,2.3,0.1,1.7-1c-0.1-0.1-0.1-0.3-0.2-0.4
						C71.2,22.5,69.4,23.5,70,24.7L70,24.7z"/>
				</g>
			</g>
			<g>
				<g>
					<path class="st5" d="M64,39.5c0,0.1,0,0.2,0,0.3c0,1.3,2,1.3,2,0c0-0.1,0-0.2,0-0.3C66,38.2,64,38.2,64,39.5L64,39.5z"/>
				</g>
			</g>
			<g>
				<g>
					<path class="st5" d="M45.6,32.3c0,0.3,0,0.5,0.1,0.8c0.2,0.5,0.7,0.9,1.2,0.7c0.5-0.1,0.9-0.7,0.7-1.2c-0.1-0.1-0.1-0.1,0-0.2
						C47.6,31,45.6,31,45.6,32.3L45.6,32.3z"/>
				</g>
			</g>
			<g>
				<g>
					<path class="st5" d="M62.7,22.4c0,0.1,0,0.2,0,0.3c0,1.3,2,1.3,2,0c0-0.1,0-0.2,0-0.3C64.7,21.1,62.7,21.1,62.7,22.4L62.7,22.4
						z"/>
				</g>
			</g>
		</g>
	</g>
	<g>
		<g>
			<g>
				<path class="st6" d="M78,54.3c2.6,1.9,4.6,4.5,5.9,7.4c0.5,1.2,2.2,0.2,1.7-1c-1.4-3.3-3.7-6.1-6.6-8.2
					C77.9,51.8,76.9,53.6,78,54.3L78,54.3z"/>
			</g>
		</g>
		<g>
			<g>
				<path class="st6" d="M77.6,70.7c1.5,1.8,2.8,3.8,3.9,5.9c0.6,1.1,2.3,0.1,1.7-1c-1.2-2.3-2.6-4.4-4.2-6.3
					C78.2,68.3,76.8,69.7,77.6,70.7L77.6,70.7z"/>
			</g>
		</g>
		<g>
			<g>
				<path class="st6" d="M94.3,72.2c1.4,2.4,3.1,4.7,4.9,6.9c0.8,1,2.2-0.4,1.4-1.4c-1.7-2-3.3-4.2-4.6-6.5
					C95.3,70.1,93.6,71.1,94.3,72.2L94.3,72.2z"/>
			</g>
		</g>
		<g>
			<g>
				<path class="st6" d="M109.3,69c1.4,2.3,2.3,4.8,2.7,7.5c0.2,1.3,2.2,1.3,2,0c-0.4-3.1-1.4-5.9-3-8.5
					C110.3,66.9,108.6,67.9,109.3,69L109.3,69z"/>
			</g>
		</g>
		<g>
			<g>
				<path class="st6" d="M68.6,99.3c0.8,2.2,2,4.2,3.6,5.9c0.9,0.9,2.3-0.5,1.4-1.4c-1.4-1.4-2.4-3.1-3.1-5
					C70.1,97.6,68.1,98.1,68.6,99.3L68.6,99.3z"/>
			</g>
		</g>
		<g>
			<g>
				<path class="st6" d="M93.9,94.6c-0.7-4.2-1.8-8.4-3.3-12.4c-0.4-1.2-2.4-0.7-1.9,0.5c1.5,4,2.5,8.2,3.3,12.4
					C92.2,96.4,94.1,95.9,93.9,94.6L93.9,94.6z"/>
			</g>
		</g>
		<g>
			<g>
				<path class="st6" d="M110.3,84.9c2,2.8,3.1,8.3,2,11.6c-0.4,1.2,1.5,1.7,1.9,0.5c1.3-3.8,0.1-9.9-2.2-13.1
					C111.3,82.8,109.6,83.8,110.3,84.9L110.3,84.9z"/>
			</g>
		</g>
		<g>
			<g>
				<path class="st6" d="M62.2,48.2c1.5,1,2.6,2.3,3.4,3.9c0.6,1.2,2.3,0.1,1.7-1c-0.9-1.9-2.4-3.5-4.2-4.7
					C62.1,45.8,61.1,47.5,62.2,48.2L62.2,48.2z"/>
			</g>
		</g>
		<g>
			<g>
				<path class="st6" d="M76.6,34.7c1.5,0.9,3.1,1.7,4.6,2.6c1.1,0.6,2.1-1.1,1-1.7c-1.5-0.9-3.1-1.7-4.6-2.6
					C76.4,32.3,75.4,34.1,76.6,34.7L76.6,34.7z"/>
			</g>
		</g>
		<g>
			<g>
				<path class="st6" d="M90,44.5c1.2,0.9,2.4,1.7,3.8,2.3c0.5,0.2,1.1,0.1,1.4-0.4c0.3-0.4,0.1-1.2-0.4-1.4c-1.2-0.5-2.4-1.2-3.4-2
					c-0.4-0.3-1-0.4-1.4,0C89.7,43.4,89.6,44.1,90,44.5L90,44.5z"/>
			</g>
		</g>
		<g>
			<g>
				<path class="st6" d="M60.5,33.8c0.3,0.2,0.5,0.4,0.7,0.7c0.3,0.4,0.9,0.6,1.4,0.4c0.4-0.3,0.7-0.9,0.4-1.4
					c-0.4-0.6-0.9-1-1.5-1.4C60.4,31.4,59.4,33.2,60.5,33.8L60.5,33.8z"/>
			</g>
		</g>
		<g>
			<g>
				<path class="st6" d="M49.8,43.5c0.4,1.3,0.7,2.5,1.1,3.8c0.4,1.2,2.3,0.7,1.9-0.5c-0.4-1.3-0.7-2.5-1.1-3.8
					C51.4,41.7,49.4,42.3,49.8,43.5L49.8,43.5z"/>
			</g>
		</g>
		<g>
			<g>
				<path class="st6" d="M93.9,56.2c2.2,1.4,4.2,3.2,5.8,5.3c0.8,1,2.5,0,1.7-1c-1.8-2.4-3.9-4.4-6.5-6
					C93.9,53.8,92.9,55.6,93.9,56.2L93.9,56.2z"/>
			</g>
		</g>
		<g>
			<g>
				<path class="st6" d="M85.9,105.8c-0.2-4.4-1.4-8.6-3.6-12.4c-0.6-1.1-2.4-0.1-1.7,1c2,3.5,3.1,7.3,3.4,11.4
					C84,107.1,86,107.1,85.9,105.8L85.9,105.8z"/>
			</g>
		</g>
		<g>
			<g>
				<path class="st6" d="M108.1,55.5c2,1.7,3.9,3.6,5.4,5.7c0.7,1,2.5,0,1.7-1c-1.7-2.3-3.6-4.3-5.7-6.1
					C108.5,53.3,107.1,54.7,108.1,55.5L108.1,55.5z"/>
			</g>
		</g>
		<g>
			<g>
				<path class="st6" d="M121.6,77.5c0.7,2.4,1.2,4.8,1.6,7.2c0.2,1.3,2.2,1.3,2,0c-0.4-2.6-0.9-5.2-1.6-7.8
					C123.2,75.7,121.2,76.3,121.6,77.5L121.6,77.5z"/>
			</g>
		</g>
		<g>
			<g>
				<path class="st6" d="M66.3,62.1c1.6,2.3,2.9,4.7,4,7.2c0.5,1.2,2.2,0.2,1.7-1c-1.1-2.5-2.4-4.9-4-7.2C67.3,60,65.6,61,66.3,62.1
					L66.3,62.1z"/>
			</g>
		</g>
		<g>
			<g>
				<path class="st6" d="M54.2,58.9c1,1.2,1.9,2.4,2.7,3.7c0.7,1.1,2.4,0.1,1.7-1c-0.9-1.4-1.9-2.8-3-4.1
					C54.8,56.5,53.4,57.9,54.2,58.9L54.2,58.9z"/>
			</g>
		</g>
		<g>
			<g>
				<path class="st6" d="M61.5,75.2c1.3,2.3,2.1,4.8,2.7,7.4c0.3,1.3,2.2,0.7,1.9-0.5c-0.6-2.8-1.6-5.4-2.9-7.9
					C62.6,73,60.8,74,61.5,75.2L61.5,75.2z"/>
			</g>
		</g>
		<g>
			<g>
				<path class="st6" d="M74.2,82.4c1,1.5,1.6,3.2,1.8,5c0.1,1.3,2.1,1.3,2,0c-0.2-2.2-0.8-4.2-2-6C75.2,80.4,73.5,81.4,74.2,82.4
					L74.2,82.4z"/>
			</g>
		</g>
		<g>
			<g>
				<path class="st6" d="M102,87.2c1.1,2.5,1.5,5.1,1.5,7.8c0,1.3,2,1.3,2,0c0.1-3.1-0.5-6-1.7-8.8C103.2,85,101.5,86,102,87.2
					L102,87.2z"/>
			</g>
		</g>
	</g>
</g>
</svg>
