<?xml version="1.0" encoding="utf-8"?>
<!-- Generator: Adobe Illustrator 23.0.2, SVG Export Plug-In . SVG Version: 6.00 Build 0)  -->
<svg version="1.1" id="Layer_1" xmlns="http://www.w3.org/2000/svg" xmlns:xlink="http://www.w3.org/1999/xlink" x="0px" y="0px"
	 viewBox="0 0 156 120" style="enable-background:new 0 0 156 120;" xml:space="preserve">
<style type="text/css">
	.st0{fill:#2ABC57;}
	.st1{fill:none;stroke:#FFFFFF;stroke-miterlimit:10;}
	.st2{fill:#FFFFFF;}
	.st3{fill:none;stroke:#000000;stroke-width:0.4;stroke-miterlimit:10;}
	.st4{fill:none;stroke:#000000;stroke-width:0.2;stroke-miterlimit:10;}
</style>
<title>Group 13 Copy</title>
<desc>Created with Sketch.</desc>
<g>
	<g>
		<rect x="23.9" y="24.4" class="st0" width="110.2" height="60.7"/>
		<path class="st1" d="M23.9,32.3c12.4,0,22.5,10.1,22.5,22.5S36.4,77.3,23.9,77.3"/>
		<path class="st1" d="M134.1,77.3c-12.4,0-22.5-10.1-22.5-22.5s10.1-22.5,22.5-22.5"/>
		<line class="st1" x1="79" y1="26.1" x2="79" y2="83.4"/>
		<circle class="st1" cx="79" cy="54.8" r="11.1"/>
	</g>
	<g>
		<rect x="25.2" y="91.6" class="st2" width="109.6" height="6.2"/>
		<g>
			<g>
				<line class="st3" x1="45.1" y1="91.6" x2="45.1" y2="95.3"/>
				<line class="st4" x1="40.7" y1="91.6" x2="40.7" y2="94.1"/>
				<line class="st4" x1="36.4" y1="91.6" x2="36.4" y2="94.1"/>
				<line class="st4" x1="32" y1="91.6" x2="32" y2="94.1"/>
				<line class="st3" x1="27.6" y1="91.6" x2="27.6" y2="95.3"/>
			</g>
			<g>
				<line class="st3" x1="62.5" y1="91.6" x2="62.5" y2="95.3"/>
				<line class="st4" x1="58.1" y1="91.6" x2="58.1" y2="94.1"/>
				<line class="st4" x1="53.8" y1="91.6" x2="53.8" y2="94.1"/>
				<line class="st4" x1="49.4" y1="91.6" x2="49.4" y2="94.1"/>
				<line class="st3" x1="45.1" y1="91.6" x2="45.1" y2="95.3"/>
			</g>
			<g>
				<line class="st3" x1="79.9" y1="91.6" x2="79.9" y2="95.3"/>
				<line class="st4" x1="75.5" y1="91.6" x2="75.5" y2="94.1"/>
				<line class="st4" x1="71.2" y1="91.6" x2="71.2" y2="94.1"/>
				<line class="st4" x1="66.8" y1="91.6" x2="66.8" y2="94.1"/>
				<line class="st3" x1="62.5" y1="91.6" x2="62.5" y2="95.3"/>
			</g>
			<g>
				<line class="st3" x1="97.3" y1="91.6" x2="97.3" y2="95.3"/>
				<line class="st4" x1="92.9" y1="91.6" x2="92.9" y2="94.1"/>
				<line class="st4" x1="88.6" y1="91.6" x2="88.6" y2="94.1"/>
				<line class="st4" x1="84.2" y1="91.6" x2="84.2" y2="94.1"/>
				<line class="st3" x1="79.9" y1="91.6" x2="79.9" y2="95.3"/>
			</g>
			<g>
				<line class="st3" x1="114.7" y1="91.6" x2="114.7" y2="95.3"/>
				<line class="st4" x1="110.3" y1="91.6" x2="110.3" y2="94.1"/>
				<line class="st4" x1="106" y1="91.6" x2="106" y2="94.1"/>
				<line class="st4" x1="101.6" y1="91.6" x2="101.6" y2="94.1"/>
				<line class="st3" x1="97.3" y1="91.6" x2="97.3" y2="95.3"/>
			</g>
			<g>
				<line class="st3" x1="132.1" y1="91.6" x2="132.1" y2="95.3"/>
				<line class="st4" x1="127.8" y1="91.6" x2="127.8" y2="94.1"/>
				<line class="st4" x1="123.4" y1="91.6" x2="123.4" y2="94.1"/>
				<line class="st4" x1="119" y1="91.6" x2="119" y2="94.1"/>
				<line class="st3" x1="114.7" y1="91.6" x2="114.7" y2="95.3"/>
			</g>
		</g>
	</g>
	<g>
		<rect x="11.4" y="23.6" class="st2" width="6.2" height="59.9"/>
		<g>
			<g>
				<line class="st3" x1="17.6" y1="44.3" x2="13.8" y2="44.3"/>
				<line class="st4" x1="17.6" y1="40" x2="15.1" y2="40"/>
				<line class="st4" x1="17.6" y1="35.6" x2="15.1" y2="35.6"/>
				<line class="st4" x1="17.6" y1="31.3" x2="15.1" y2="31.3"/>
				<line class="st3" x1="17.6" y1="26.9" x2="13.8" y2="26.9"/>
			</g>
			<g>
				<line class="st3" x1="17.6" y1="61.7" x2="13.8" y2="61.7"/>
				<line class="st4" x1="17.6" y1="57.4" x2="15.1" y2="57.4"/>
				<line class="st4" x1="17.6" y1="53" x2="15.1" y2="53"/>
				<line class="st4" x1="17.6" y1="48.7" x2="15.1" y2="48.7"/>
				<line class="st3" x1="17.6" y1="44.3" x2="13.8" y2="44.3"/>
			</g>
			<g>
				<line class="st3" x1="17.6" y1="79.2" x2="13.8" y2="79.2"/>
				<line class="st4" x1="17.6" y1="74.8" x2="15.1" y2="74.8"/>
				<line class="st4" x1="17.6" y1="70.5" x2="15.1" y2="70.5"/>
				<line class="st4" x1="17.6" y1="66.1" x2="15.1" y2="66.1"/>
				<line class="st3" x1="17.6" y1="61.7" x2="13.8" y2="61.7"/>
			</g>
		</g>
	</g>
</g>
</svg>
