<?xml version="1.0" encoding="utf-8"?>
<!-- Generator: Adobe Illustrator 23.0.2, SVG Export Plug-In . SVG Version: 6.00 Build 0)  -->
<svg version="1.1" id="Layer_1" xmlns="http://www.w3.org/2000/svg" xmlns:xlink="http://www.w3.org/1999/xlink" x="0px" y="0px"
	 viewBox="0 0 156 120" style="enable-background:new 0 0 156 120;" xml:space="preserve">
<style type="text/css">
	.st0{fill:#FFA996;}
	.st1{fill:#FFBEB3;}
	.st2{fill:#FF5441;}
	.st3{fill:none;stroke:#D63225;stroke-width:2;stroke-linecap:round;stroke-linejoin:round;stroke-miterlimit:10;}
	.st4{fill:none;stroke:#FFB339;stroke-width:2;stroke-linecap:round;stroke-linejoin:round;stroke-miterlimit:10;}
</style>
<title>Group 13 Copy</title>
<desc>Created with Sketch.</desc>
<g>
	<rect x="69.5" class="st0" width="16.9" height="11.3"/>
	<path class="st0" d="M41.8,16L10.1,26.5l2.2,7.8c0,0,23-0.7,38.2-7"/>
	<polygon class="st1" points="10.1,26.5 10.6,28.2 45.6,17.5 38.7,17 	"/>
	<polyline class="st0" points="114.2,16 145.9,26.5 143.7,34.2 106.9,26.5 	"/>
	<polygon class="st1" points="145.9,26.5 145.4,28.2 110.4,17.5 117.3,17 	"/>
	<path class="st2" d="M117.4,16.4l-31-9.6c0,0,1.1,4.4-8.5,4.4s-8.5-4.4-8.5-4.4l-31,9.6l3.9,19.9h7.8l-0.5,46.9H78h28.2l-0.5-46.9
		h7.8L117.4,16.4z"/>
	<path class="st3" d="M104.8,78.3c0,0-14.8-17.1-18.3-37.5"/>
	<path class="st3" d="M98.8,55.1c-0.4-0.6-3.1-2.9-3.2-8"/>
	<path class="st4" d="M62.2,26.6c0,0,3.1,4,7.9,0.8"/>
</g>
</svg>
