<svg height="437pt" viewBox="0 -20 437.57912 437" width="437pt" xmlns="http://www.w3.org/2000/svg" xmlns:xlink="http://www.w3.org/1999/xlink"><linearGradient id="a"><stop offset="0" stop-color="#00efd1"/><stop offset="1" stop-color="#00acea"/></linearGradient><linearGradient id="b" gradientUnits="userSpaceOnUse" x1="210.912007" x2="210.912007" xlink:href="#a" y1="-42.815828" y2="431.336172"/><linearGradient id="c" gradientUnits="userSpaceOnUse" x1="105.080007" x2="105.080007" xlink:href="#a" y1="-42.815828" y2="431.336172"/><linearGradient id="d" gradientUnits="userSpaceOnUse" x1="355.039007" x2="355.039007" xlink:href="#a" y1="-42.815828" y2="431.336172"/><linearGradient id="e" gradientUnits="userSpaceOnUse" x1="43.115007" x2="43.115007" xlink:href="#a" y1="-42.815828" y2="431.336172"/><linearGradient id="f" gradientUnits="userSpaceOnUse" x1="388.909007" x2="388.909007" xlink:href="#a" y1="-42.815828" y2="431.336172"/><linearGradient id="g" gradientUnits="userSpaceOnUse" x1="216.769007" x2="216.769007" xlink:href="#a" y1="-42.815828" y2="431.336172"/><path d="m303.757812 213.109375 78.335938-76.359375c2.726562-2.65625 3.707031-6.628906 2.53125-10.25s-4.308594-6.257812-8.074219-6.804688l-108.257812-15.730468-48.414063-98.101563c-1.683594-3.414062-5.160156-5.574219-8.96875-5.574219-3.804687 0-7.28125 2.160157-8.964844 5.574219l-48.414062 98.101563-108.261719 15.730468c-3.765625.546876-6.898437 3.183594-8.074219 6.804688-1.175781 3.621094-.195312 7.59375 2.53125 10.25l78.34375 76.359375-18.496093 107.820313c-.640625 3.75.902343 7.542968 3.980469 9.78125 3.078124 2.234374 7.160156 2.53125 10.53125.761718l96.828124-50.902344 96.828126 50.902344c3.371093 1.769532 7.453124 1.472656 10.53125-.761718 3.078124-2.238282 4.621093-6.03125 3.980468-9.78125zm-88.1875 47.308594c-2.914062-1.53125-6.394531-1.53125-9.308593 0l-83.546875 43.921875 15.953125-93.03125c.558593-3.242188-.519531-6.554688-2.875-8.851563l-67.589844-65.882812 93.40625-13.574219c3.257813-.472656 6.074219-2.519531 7.53125-5.472656l41.769531-84.644532 41.777344 84.644532c1.457031 2.949218 4.269531 4.996094 7.527344 5.46875l93.40625 13.574218-67.589844 65.886719c-2.355469 2.296875-3.429688 5.605469-2.875 8.847657l15.957031 93.03125zm0 0" fill="url(#b)"/><path d="m114.289062 57.996094c3.90625 3.902344 10.238282 3.902344 14.140626 0 3.90625-3.90625 3.90625-10.238282 0-14.144532l-32.5625-32.558593c-2.515626-2.566407-6.21875-3.582031-9.695313-2.664063-3.472656.921875-6.1875 3.636719-7.109375 7.109375-.917969 3.476563.101562 7.179688 2.667969 9.695313zm0 0" fill="url(#c)"/><path d="m329.832031 75.628906c2.652344 0 5.199219-1.050781 7.070313-2.929687l50.414062-50.414063c3.90625-3.90625 3.90625-10.238281 0-14.144531s-10.238281-3.90625-14.140625 0l-50.414062 50.414063c-2.859375 2.859374-3.714844 7.160156-2.167969 10.898437s5.195312 6.171875 9.238281 6.171875zm0 0" fill="url(#d)"/><path d="m71.332031 236.515625-66.164062 36.839844c-3.136719 1.730469-5.105469 5.007812-5.167969 8.585937-.0585938 3.582032 1.800781 6.921875 4.875 8.757813 3.078125 1.835937 6.898438 1.886719 10.023438.132812l66.164062-36.847656c3.148438-1.722656 5.132812-5.003906 5.199219-8.59375.0625-3.589844-1.800781-6.9375-4.886719-8.773437-3.085938-1.835938-6.917969-1.875-10.042969-.105469zm0 0" fill="url(#e)"/><path d="m432.332031 270.183594-77.191406-42.535156c-4.839844-2.664063-10.921875-.90625-13.585937 3.933593-2.667969 4.835938-.90625 10.917969 3.929687 13.582031l77.195313 42.535157c3.132812 1.761719 6.96875 1.707031 10.046874-.144531 3.082032-1.847657 4.933594-5.207032 4.851563-8.800782-.082031-3.589844-2.085937-6.863281-5.246094-8.570312zm0 0" fill="url(#f)"/><path d="m216.769531 307.183594c-5.523437 0-10 4.476562-10 10v71c0 5.523437 4.476563 10 10 10 5.523438 0 10-4.476563 10-10v-71c0-5.523438-4.476562-10-10-10zm0 0" fill="url(#g)"/></svg>