<?xml version="1.0" encoding="utf-8"?>
<!-- Generator: Adobe Illustrator 23.0.2, SVG Export Plug-In . SVG Version: 6.00 Build 0)  -->
<svg version="1.1" id="Layer_1" xmlns="http://www.w3.org/2000/svg" xmlns:xlink="http://www.w3.org/1999/xlink" x="0px" y="0px"
	 viewBox="0 0 156 120" style="enable-background:new 0 0 156 120;" xml:space="preserve">
<style type="text/css">
	.st0{fill:#FFBE1E;}
	.st1{fill:#3B54B9;}
	.st2{fill:#FF5663;}
</style>
<g>
	<circle class="st0" cx="66.6" cy="51.8" r="18"/>
	<circle class="st0" cx="83.7" cy="44.9" r="9"/>
	<circle class="st0" cx="95.6" cy="53.9" r="13"/>
	<circle class="st0" cx="77.2" cy="67.2" r="15.5"/>
	<circle class="st0" cx="61.7" cy="69.7" r="7.2"/>
	<circle class="st0" cx="92.6" cy="66.1" r="15.5"/>
	<g>
		<path class="st1" d="M21.6,32.2c6-0.3,22.5-0.3,26.9,0c0.2,2.6,0.2,8.1,0,11.2c-4.4,0.1-9.4,0.1-14.8,0c0,3.2,0.1,7.8,0,10.9
			c10.9-0.3,18.3,6.3,18.3,17.2c0,10.9-6.8,16.9-19.8,17.3c-2.2,0.1-7.5,0.1-9.9,0c-0.2-2.7-0.2-8.5,0-11.2c2.3,0,6.6,0,8.6-0.1
			c6-0.2,9.1-2.3,9.1-6.4c0-4.1-3-6.5-9.1-6.5c-2.9,0-6.8,0.1-9.4,0C21.4,61.3,21.4,35.6,21.6,32.2z"/>
	</g>
	<g>
		<path class="st1" d="M117,29.6c5.9,1.2,21.9,5.1,26.1,6.5c-0.4,2.6-1.7,7.9-2.7,10.8c-4.3-0.9-9.2-2.1-14.3-3.5
			c-0.8,3.1-1.8,7.6-2.6,10.5c10.7,2.4,16.2,10.5,13.6,21.1c-2.6,10.6-10.7,14.8-23.4,12.1c-2.1-0.4-7.3-1.7-9.6-2.4
			c0.4-2.7,1.8-8.3,2.7-10.9c2.2,0.6,6.4,1.6,8.4,2c5.9,1.2,9.4-0.1,10.3-4c1-4-1.4-7-7.2-8.5c-2.9-0.7-6.6-1.5-9.2-2.3
			C109.8,57.8,115.9,32.9,117,29.6z"/>
	</g>
	<g>
		<path class="st2" d="M68.6,46.2c0.6,1.4,2.9,8,4.7,13.1c1.8-5.1,4.1-11.7,4.7-13.1c1.2,0.2,4.6,1.2,5.6,1.8
			c-0.6,1.9-6,16.3-7,17.9c-1.5,0.2-5,0.2-6.6,0c-1-1.6-6.5-16-7-17.9C64,47.3,67.4,46.4,68.6,46.2z"/>
		<path class="st2" d="M92.1,56.2c1.4-0.1,2-0.1,3.5,0c0.2,1.4,0.2,3.8,0,5.1c-1.4,0-2.4,0-2.8,0c-2.8,0-2.8,1.8-0.8,2.6
			c3.3,1.3,4.7,3.2,4.7,5.9c0,2.9-2.4,5.8-7.8,6.1c-1.4,0.1-2.5,0.1-3.9,0c-0.2-1.4-0.2-3.9,0-5.1c0.5,0,1.9,0,3.3,0
			c3.2-0.1,2.7-1.7,0.7-2.5c-2.9-1.2-4.4-3.3-4.4-6C84.6,59.3,87.1,56.4,92.1,56.2z"/>
	</g>
</g>
</svg>
