<?xml version="1.0" encoding="utf-8"?>
<!-- Generator: Adobe Illustrator 23.0.2, SVG Export Plug-In . SVG Version: 6.00 Build 0)  -->
<svg version="1.1" id="Layer_1" xmlns="http://www.w3.org/2000/svg" xmlns:xlink="http://www.w3.org/1999/xlink" x="0px" y="0px"
	 viewBox="0 0 156 120" style="enable-background:new 0 0 156 120;" xml:space="preserve">
<style type="text/css">
	.st0{fill:#FFBE1E;}
	.st1{fill:#3B54B9;}
	.st2{fill:#FF5663;}
</style>
<g>
	<circle class="st0" cx="66.6" cy="52.3" r="18"/>
	<circle class="st0" cx="83.7" cy="45.5" r="9"/>
	<circle class="st0" cx="95.7" cy="54.5" r="13"/>
	<circle class="st0" cx="77.2" cy="67.8" r="15.5"/>
	<circle class="st0" cx="61.7" cy="70.3" r="7.2"/>
	<circle class="st0" cx="92.7" cy="66.6" r="15.5"/>
	<g>
		<path class="st1" d="M26.6,32c2.5,0.2,9.1,1.9,11.5,2.9c-0.8,2.8-4.7,16.3-5.8,19.8c1.2-0.9,3.6-1.7,6.5-1.7
			c9.9,0,18.7,6.3,18.7,17.9c0,11.9-8.5,19.2-20,19.2c-12,0-21.2-7.8-20.2-21.4C17.9,61,25.2,35.3,26.6,32z M37.5,79.3
			c4.8,0,7.9-2.9,7.9-7.9c0-5-3.1-7.9-7.9-7.9s-7.9,2.9-7.9,7.9C29.6,76.4,32.7,79.3,37.5,79.3z"/>
	</g>
	<g>
		<path class="st1" d="M122,30.7c2.4,0.8,8.4,4,10.5,5.6c-1.4,2.5-8.5,14.7-10.4,17.8c1.3-0.6,3.9-0.7,6.7,0
			c9.6,2.4,16.7,10.6,13.9,21.9c-2.9,11.5-12.9,16.6-24,13.8c-11.7-2.9-18.7-12.7-14.4-25.6C106.6,56.8,119.8,33.6,122,30.7z
			 M121.2,79.1c4.7,1.2,8.4-0.9,9.6-5.8c1.2-4.9-1.1-8.4-5.8-9.6c-4.7-1.2-8.4,0.9-9.6,5.8C114.2,74.4,116.5,78,121.2,79.1z"/>
	</g>
	<g>
		<path class="st2" d="M68.7,46.7c0.6,1.4,2.9,8,4.7,13.1c1.8-5.1,4.1-11.7,4.7-13.1c1.2,0.2,4.6,1.2,5.6,1.8
			c-0.6,1.9-6,16.3-7,17.9c-1.5,0.2-5,0.2-6.6,0c-1-1.6-6.5-16-7-17.9C64.1,47.9,67.5,46.9,68.7,46.7z"/>
		<path class="st2" d="M92.2,56.7c1.4-0.1,2-0.1,3.5,0c0.2,1.4,0.2,3.8,0,5.1c-1.4,0-2.4,0-2.8,0c-2.8,0-2.8,1.8-0.8,2.6
			c3.3,1.3,4.7,3.2,4.7,5.9c0,2.9-2.4,5.8-7.8,6.1c-1.4,0.1-2.5,0.1-3.9,0c-0.2-1.4-0.2-3.9,0-5.1c0.5,0,1.9,0,3.3,0
			c3.2-0.1,2.7-1.7,0.7-2.5c-2.9-1.2-4.4-3.3-4.4-6C84.6,59.9,87.1,57,92.2,56.7z"/>
	</g>
</g>
</svg>
