<?xml version="1.0" encoding="utf-8"?>
<!-- Generator: Adobe Illustrator 23.0.2, SVG Export Plug-In . SVG Version: 6.00 Build 0)  -->
<svg version="1.1" id="Layer_1" xmlns="http://www.w3.org/2000/svg" xmlns:xlink="http://www.w3.org/1999/xlink" x="0px" y="0px"
	 viewBox="0 0 156 120" style="enable-background:new 0 0 156 120;" xml:space="preserve">
<style type="text/css">
	.st0{fill:#3F4190;}
	.st1{fill:#F9AC8F;}
	.st2{fill:#F48078;}
	.st3{fill:#FF5663;}
	.st4{fill:#040000;}
	.st5{fill:#EA394E;}
	.st6{fill:#FCC7B6;}
	.st7{fill:#F29383;}
	.st8{fill:none;stroke:#F48078;stroke-width:1.5204;stroke-linecap:round;stroke-linejoin:round;stroke-miterlimit:10;}
	.st9{fill:none;stroke:#F48078;stroke-width:1.1751;stroke-linecap:round;stroke-linejoin:round;stroke-miterlimit:10;}
	.st10{fill:#FFBE4A;}
	.st11{fill:#FFFFFF;}
	.st12{fill:#F2942F;}
</style>
<g>
	<g>
		<g>
			<path class="st0" d="M440,1001.3c-2.3-3.4-1.2-8.6,2.3-10.8c1.6-1,3.6-1.3,5.2-2.4c3.3-2.2,3.9-6.8,6.2-10.1
				c2.7-4,7.7-5.9,12.5-6.2c3.8-0.2,8.5,1.1,9.4,4.8c0.3,1.1,0.1,2.2,0.4,3.3c1.2,4.2,7.2,4.6,9.9,8c2,2.5,1.7,6.2,0.5,9.2
				c-0.7,1.8-1.7,3.7-1.2,5.7c0.3,1.2,1.1,2.1,1.4,3.3c0.9,3.1-2.2,6.2-5.3,6.6s-6.3-1.2-9.1-2.7c-2.8-1.5-5.8-3.2-9-3.1
				c-6.7,0.2-11.4,7.7-18.1,8c-1.3,0-2.6-0.2-3.5-1.2c-0.8-0.9-1-2.2-1.1-3.4c-0.3-3.1-0.2-6.2,0-9.4"/>
		</g>
		<g>
			<path class="st1" d="M455,1000.1c-0.5-1.3,0-2.8,0.8-3.9s2-1.9,3.1-2.7c2.3-1.6,5.1-3.2,7.7-2.1c1.3,0.5,2.2,1.7,3,2.8
				c2.6,3.8,4.4,8.1,6,12.5c0.5,1.3,1,2.7,0.9,4.1c-0.1,2.8-2.7,5.3-5.5,5.2c-0.8,0-1.5-0.2-2.3-0.2c-3.1-0.1-6.1,2.3-9.1,1.7
				c-2.2-0.4-3.9-2.3-4.7-4.4c-0.8-2.1-0.9-4.4-0.9-6.6c-0.1-2-0.1-4.1-0.2-6.1c-0.1-2.3-0.1-4.8,1.4-6.5"/>
		</g>
		<g>
			<g>
				<path class="st2" d="M462.6,1001.3c-0.5,1.5-0.8,3-1.1,4.5c-0.1,0.9-0.2,2,0.4,2.8c0.8,1,2.7,0.8,2.9-0.6c0.1-0.7-1-1-1.1-0.3
					c-0.8,0.2-1.2,0-1.1-0.6c0-0.2,0-0.5,0-0.7c0-0.6,0.2-1.2,0.3-1.8c0.2-1,0.5-2,0.8-3C464,1000.9,462.8,1000.6,462.6,1001.3
					L462.6,1001.3z"/>
			</g>
		</g>
		<g>
			<g>
				<path class="st2" d="M458.4,1004.6C458.4,1004.6,458.3,1004.6,458.4,1004.6C458.3,1004.8,458.5,1004.4,458.4,1004.6
					c0.1-0.2,0.3-0.2,0.4-0.3c-0.2,0-0.4,0-0.7,0c0.2,0.1,0.4,0.3,0.6,0.4c0-0.2,0-0.3,0.1-0.5c0.5-0.6-0.3-1.4-0.8-0.8
					c-0.4,0.5-0.5,1-0.4,1.6c0.1,0.2,0.3,0.4,0.6,0.4c0.4,0,0.9,0.1,1.2-0.3c0.2-0.3,0.2-0.7,0.1-1c-0.3-0.6-1.1-1-1.7-0.6
					C457.2,1004,457.8,1005,458.4,1004.6L458.4,1004.6z"/>
			</g>
		</g>
		<g>
			<g>
				<path class="st2" d="M468.8,1003C468.8,1002.9,468.8,1002.9,468.8,1003c0-0.4-0.1-0.7-0.2-1c-0.1,0.1-0.1,0.1-0.2,0
					c-0.7-0.2-1,0.9-0.3,1.1c0.5,0.2,1,0,1.3-0.3s0.2-0.9-0.3-1c-0.6-0.2-1.4,0.2-1.5,0.9C467.5,1003.4,468.6,1003.7,468.8,1003
					L468.8,1003z"/>
			</g>
		</g>
		<g>
			<g>
				<path class="st2" d="M464.3,1012.9c3.1,0.6,7.6,0.3,8-3.7c0.1-0.7-1.1-0.7-1.2,0c-0.2,3.2-4.2,3.1-6.5,2.6
					C463.9,1011.7,463.6,1012.8,464.3,1012.9L464.3,1012.9z"/>
			</g>
		</g>
	</g>
	<g>
		<g>
			<path class="st3" d="M502,1001.3c-2.3-3.4-1.2-8.6,2.3-10.8c1.6-1,3.6-1.3,5.2-2.4c3.3-2.2,3.9-6.8,6.2-10.1
				c2.7-4,7.7-5.9,12.5-6.2c3.8-0.2,8.5,1.1,9.4,4.8c0.3,1.1,0.1,2.2,0.4,3.3c1.2,4.2,7.2,4.6,9.9,8c2,2.5,1.7,6.2,0.5,9.2
				c-0.7,1.8-1.7,3.7-1.2,5.7c0.3,1.2,1.1,2.1,1.4,3.3c0.9,3.1-2.2,6.2-5.3,6.6c-3.2,0.4-6.3-1.2-9.1-2.7s-5.8-3.2-9-3.1
				c-6.7,0.2-11.4,7.7-18.1,8c-1.3,0-2.6-0.2-3.5-1.2c-0.8-0.9-1-2.2-1.1-3.4c-0.3-3.1-0.2-6.2,0-9.4"/>
		</g>
		<g>
			<path class="st1" d="M517,1000.1c-0.5-1.3,0-2.8,0.8-3.9s2-1.9,3.1-2.7c2.3-1.6,5.1-3.2,7.7-2.1c1.3,0.5,2.2,1.7,3,2.8
				c2.6,3.8,4.4,8.1,6,12.5c0.5,1.3,1,2.7,0.9,4.1c-0.1,2.8-2.7,5.3-5.5,5.2c-0.8,0-1.5-0.2-2.3-0.2c-3.1-0.1-6.1,2.3-9.1,1.7
				c-2.2-0.4-3.9-2.3-4.7-4.4c-0.8-2.1-0.9-4.4-0.9-6.6c-0.1-2-0.1-4.1-0.2-6.1c-0.1-2.3-0.1-4.8,1.4-6.5"/>
		</g>
		<g>
			<g>
				<path class="st2" d="M524.6,1001.3c-0.5,1.5-0.8,3-1.1,4.5c-0.1,0.9-0.2,2,0.4,2.8c0.8,1,2.7,0.8,2.9-0.6c0.1-0.7-1-1-1.1-0.3
					c-0.8,0.2-1.2,0-1.1-0.6c0-0.2,0-0.5,0-0.7c0-0.6,0.2-1.2,0.3-1.8c0.2-1,0.5-2,0.8-3C525.9,1000.9,524.8,1000.6,524.6,1001.3
					L524.6,1001.3z"/>
			</g>
		</g>
		<g>
			<g>
				<path class="st2" d="M520.4,1004.6C520.4,1004.6,520.3,1004.6,520.4,1004.6C520.3,1004.8,520.5,1004.4,520.4,1004.6
					c0.1-0.2,0.3-0.2,0.4-0.3c-0.2,0-0.4,0-0.7,0c0.2,0.1,0.4,0.3,0.6,0.4c0-0.2,0-0.3,0.1-0.5c0.5-0.6-0.3-1.4-0.8-0.8
					c-0.4,0.5-0.5,1-0.4,1.6c0.1,0.2,0.3,0.4,0.6,0.4c0.4,0,0.9,0.1,1.2-0.3c0.2-0.3,0.2-0.7,0.1-1c-0.3-0.6-1.1-1-1.7-0.6
					C519.2,1004,519.7,1005,520.4,1004.6L520.4,1004.6z"/>
			</g>
		</g>
		<g>
			<g>
				<path class="st2" d="M530.8,1003C530.8,1002.9,530.8,1002.9,530.8,1003c0-0.4-0.1-0.7-0.2-1c-0.1,0.1-0.1,0.1-0.2,0
					c-0.7-0.2-1,0.9-0.3,1.1c0.5,0.2,1,0,1.3-0.3s0.2-0.9-0.3-1c-0.6-0.2-1.4,0.2-1.5,0.9S530.6,1003.7,530.8,1003L530.8,1003z"/>
			</g>
		</g>
		<g>
			<g>
				<path class="st2" d="M526.3,1012.9c3.1,0.6,7.6,0.3,8-3.7c0.1-0.7-1.1-0.7-1.2,0c-0.2,3.2-4.2,3.1-6.5,2.6
					C525.9,1011.7,525.6,1012.8,526.3,1012.9L526.3,1012.9z"/>
			</g>
		</g>
	</g>
</g>
<g>
	<g>
		<path class="st4" d="M52.1,87.1c0,0-9.8,6.3-11.9,15.1h9.5L52.1,87.1z"/>
		<path class="st4" d="M104.5,92.5c0,0,8.3,5.2,8.1,9.7H96.9C96.9,102.2,99.2,92.5,104.5,92.5z"/>
		<g>
			<path class="st3" d="M98.3,102.2H44.8c0,0-1.7-17.7,25.1-22.9l21.2,5.4c0,0,7.6,3.2,13.4,7.8C104.5,92.5,99.5,96.8,98.3,102.2z"
				/>
			<path class="st4" d="M86.7,81.1l4.4,3.6c0,0-22.2,17.1-32.7,8.1c0,0-5.7-7.6,11.5-13.5"/>
			<g>
				<g>
					<g>
						<path class="st5" d="M89.5,90.4c-0.2,0.3-0.4,0.6-0.5,0.9c-0.3,0.6,0.5,1.1,0.9,0.5c0.2-0.3,0.4-0.6,0.5-0.9
							C90.7,90.3,89.8,89.8,89.5,90.4L89.5,90.4z"/>
					</g>
				</g>
				<g>
					<g>
						<path class="st5" d="M92.7,96.9c-0.1,0.2-0.2,0.3-0.3,0.5c-0.3,0.6,0.6,1.1,0.9,0.5c0.1-0.2,0.2-0.3,0.3-0.5
							C93.9,96.8,93,96.3,92.7,96.9L92.7,96.9z"/>
					</g>
				</g>
				<g>
					<g>
						<path class="st5" d="M86,98.3c0,0.3-0.1,0.5-0.3,0.7c-0.4,0.5,0.3,1.2,0.7,0.7c0.3-0.4,0.5-0.8,0.6-1.4
							C87.1,97.6,86.1,97.6,86,98.3L86,98.3z"/>
					</g>
				</g>
				<g>
					<g>
						<path class="st5" d="M79.3,95.8c0,0.3,0,0.5-0.1,0.8c-0.2,0.6,0.7,0.9,1,0.3c0.2-0.4,0.2-0.9,0.1-1.3
							C80.1,94.9,79.2,95.2,79.3,95.8L79.3,95.8z"/>
					</g>
				</g>
				<g>
					<g>
						<path class="st5" d="M68.5,98.5c-0.1,0.2-0.2,0.3-0.3,0.5c-0.3,0.6,0.6,1.1,0.9,0.5c0.1-0.2,0.2-0.3,0.3-0.5
							C69.7,98.5,68.8,98,68.5,98.5L68.5,98.5z"/>
					</g>
				</g>
				<g>
					<g>
						<path class="st5" d="M59.7,97.6c0,0.3,0,0.5-0.2,0.8c-0.3,0.5,0.5,1.1,0.9,0.5c0.2-0.4,0.4-0.8,0.3-1.3
							C60.6,97,59.6,97,59.7,97.6L59.7,97.6z"/>
					</g>
				</g>
				<g>
					<g>
						<path class="st5" d="M53.3,90.5c0,0.2,0,0.4-0.1,0.6c-0.2,0.6,0.7,0.9,1,0.3c0.1-0.3,0.2-0.6,0.1-0.9
							C54.3,89.8,53.3,89.8,53.3,90.5L53.3,90.5z"/>
					</g>
				</g>
				<g>
					<g>
						<path class="st5" d="M51.8,98.9c0,0.2-0.1,0.4-0.1,0.6c-0.1,0.6,0.8,0.9,1,0.3c0-0.2,0.1-0.4,0.1-0.6
							C52.9,98.6,51.9,98.3,51.8,98.9L51.8,98.9z"/>
					</g>
				</g>
				<g>
					<g>
						<path class="st5" d="M47.4,94.9c-0.1,0.3-0.2,0.5-0.3,0.8c-0.2,0.6,0.8,0.9,1,0.3c0.1-0.3,0.2-0.5,0.3-0.8
							C48.6,94.6,47.6,94.3,47.4,94.9L47.4,94.9z"/>
					</g>
				</g>
				<g>
					<g>
						<path class="st5" d="M55.6,86.4c-0.2,0.3-0.3,0.5-0.5,0.8c-0.4,0.5,0.5,1,0.9,0.5c0.2-0.3,0.3-0.5,0.5-0.8
							C56.8,86.4,56,85.9,55.6,86.4L55.6,86.4z"/>
					</g>
				</g>
				<g>
					<g>
						<path class="st5" d="M95.7,92.7c0,0.1-0.1,0.3-0.1,0.4c-0.2,0.6,0.8,0.9,1,0.3c0-0.1,0.1-0.3,0.1-0.4
							C96.8,92.3,95.9,92.1,95.7,92.7L95.7,92.7z"/>
					</g>
				</g>
			</g>
		</g>
	</g>
	<g>
		<g>
			<path class="st6" d="M76.6,23.4c5.4,2.5,11,5.3,14.2,10.3c2.9,4.5,5.1,9.5,5.1,14.9c0,4.4-2.1,9.5-3.8,13.5c-1.1,2.7-3,5.1-4,7.9
				c-0.9,2.4-1.3,5-1.1,7.6c0.1,1.2,0.3,2.4-0.2,3.5c-0.6,1.1-1.8,1.7-3,2.2c-3.1,1.3-6.3,2.6-9.4,3.8c-2.6,1-5.9,1.9-7.8-0.1
				c-2-2.1,0.8-7.3-1-9.7c-1.1-1.5-4.7-0.5-6.2-1.5c-2.1-1.4-3.3-3.7-4.3-6.1c-2.9-7.2-4.3-14.9-4-22.6c0.1-3.1,0.5-6.3,1.7-9.2
				c1.8-4.6,5.2-8.3,9.1-11.3C66,23.7,68.4,22.2,76.6,23.4"/>
		</g>
		<path class="st7" d="M65.6,77.4c0,0,13.8-2.3,16.4-8.5c0,0-6.5,14.5-16.2,17C65.9,85.9,66.1,81.4,65.6,77.4z"/>
		<path class="st8" d="M56.2,43.9c0,0,8.6,3.3,1.8,13l2.7,1.4"/>
		<circle class="st2" cx="55.2" cy="48.6" r="1.5"/>
		<circle class="st2" cx="71.2" cy="51.1" r="1.5"/>
		<path class="st8" d="M72.8,45.5c0,0-3.6-1.2-5.4,1.8"/>
		<path class="st9" d="M69.1,62c0,0-3.4,4.7-8.2,2.4"/>
		<path class="st10" d="M93.1,51.1c0,0-7.8-3.7-7.8,4.5l-0.2-5c0,0,1-9-1.9-12.2S63,28.1,52.8,38c0,0,3-20.4,29.1-18
			c26.3,2.5,19.2,40.4,7.7,46.7c0,0-6-4.8,0.7-6.4C94.7,59.3,95.3,52.1,93.1,51.1z"/>
		<g>
			<g>
				<path class="st10" d="M99.1,31.2c1,1.3,1.9,2.6,2.6,4.1c0.6,1.2,2.3,0.1,1.7-1c-0.8-1.6-1.8-3.1-2.9-4.5
					C99.7,28.8,98.3,30.2,99.1,31.2L99.1,31.2z"/>
			</g>
		</g>
		<g>
			<g>
				<path class="st11" d="M53.9,39.3c6.7-2.1,14.1-3.6,21-1.2c6.3,2.2,12.2,6,15.8,11.7c1.2,2,4.4,0.1,3.1-1.8
					c-3.9-6.1-9.8-10.1-16.5-12.8C69.4,32,60.9,33.4,53,35.8C50.7,36.5,51.7,39.9,53.9,39.3L53.9,39.3z"/>
			</g>
		</g>
		<g>
			<g>
				<path class="st12" d="M65.9,30.6c1.3-1.4,2.8-2.6,4.4-3.5c0.6-0.3,0.1-1.2-0.5-0.9c-1.7,1-3.3,2.2-4.6,3.7
					C64.7,30.4,65.4,31.1,65.9,30.6L65.9,30.6z"/>
			</g>
		</g>
		<g>
			<g>
				<path class="st12" d="M80.8,31c1.4-0.7,2.9-1,4.4-0.9c0.6,0,0.6-1,0-1c-1.7,0-3.4,0.3-4.9,1.1C79.7,30.4,80.2,31.3,80.8,31
					L80.8,31z"/>
			</g>
		</g>
		<g>
			<g>
				<path class="st7" d="M90.5,53.9c0-0.1,0.2,0.5,0.2,0.6c0,0.2-0.1,0.4-0.2,0.6c-0.3,0.5-0.8,0.6-1.2,0.9
					c-0.6,0.4-0.8,0.9-0.7,1.6c0.2,0.6,1.1,0.4,1-0.3c-0.1-0.3,0.5-0.6,0.7-0.7c0.2-0.1,0.3-0.2,0.4-0.3c0.2-0.2,0.4-0.3,0.6-0.6
					c0.4-0.5,0.5-1.2,0.4-1.8c-0.2-0.9-1.5-1.8-2-0.6C89.4,53.9,90.3,54.5,90.5,53.9L90.5,53.9z"/>
			</g>
		</g>
		<g>
			<path class="st10" d="M103.3,31.3c-0.2-3.1,1.8-6.2,4.6-7.7s6.1-1.6,9.1-0.8c1.3,0.4,2.5,0.9,3.6,1.8c1.6,1.3,2.4,3.3,2.8,5.3
				c0.8,5-1.3,9.8-2.7,14.6c-1.8,6.1-2.5,13.1,0.9,18.6c2.9,4.6,8,7.2,13.1,9.2c-3.5,2.7-8.4,1.7-12.7,0.6c-3.7-1-8-2.5-8.8-6.2
				c-0.1,1.9,0,3.8,0.4,5.7c-4.3-2.1-5.4-7.7-5.2-12.4c0.1-2.8,0.4-5.6,1-8.4c0.8-3.7,2-7.4,1.7-11.2c-0.3-3.8-2.9-7.7-6.6-8.1"/>
		</g>
		<g>
			<g>
				<path class="st12" d="M108,30.2c3.6-0.6,8,4.6,7.3,8.1c-0.1,0.6,0.8,0.9,1,0.3c0.8-4.3-4.1-10.1-8.6-9.3
					C107.1,29.3,107.4,30.3,108,30.2L108,30.2z"/>
			</g>
		</g>
		<g>
			<g>
				<path class="st12" d="M116,62.8c0.6,2.3,2.2,4.3,4.4,5.4c0.6,0.3,1.1-0.6,0.5-0.9c-1.9-1-3.3-2.7-3.9-4.8
					C116.8,62,115.8,62.2,116,62.8L116,62.8z"/>
			</g>
		</g>
	</g>
</g>
</svg>
