<?xml version="1.0" encoding="utf-8"?>
<!-- Generator: Adobe Illustrator 23.0.2, SVG Export Plug-In . SVG Version: 6.00 Build 0)  -->
<svg version="1.1" id="Layer_1" xmlns="http://www.w3.org/2000/svg" xmlns:xlink="http://www.w3.org/1999/xlink" x="0px" y="0px"
	 viewBox="0 0 156 120" style="enable-background:new 0 0 156 120;" xml:space="preserve">
<style type="text/css">
	.st0{fill:#3F4190;}
	.st1{fill:#F9AC8F;}
	.st2{fill:#F48078;}
	.st3{fill:#FF5663;}
	.st4{fill:#040000;}
	.st5{fill:#EA394E;}
	.st6{fill:#FCC7B6;}
	.st7{fill:#F29383;}
	.st8{fill:none;stroke:#F48078;stroke-width:1.5204;stroke-linecap:round;stroke-linejoin:round;stroke-miterlimit:10;}
	.st9{fill:none;stroke:#F48078;stroke-width:1.1751;stroke-linecap:round;stroke-linejoin:round;stroke-miterlimit:10;}
	.st10{fill:#292E6B;}
	.st11{clip-path:url(#SVGID_2_);fill:#747DBA;}
</style>
<g>
	<g>
		<g>
			<path class="st0" d="M440,1001.3c-2.3-3.4-1.2-8.6,2.3-10.8c1.6-1,3.6-1.3,5.2-2.4c3.3-2.2,3.9-6.8,6.2-10.1
				c2.7-4,7.7-5.9,12.5-6.2c3.8-0.2,8.5,1.1,9.4,4.8c0.3,1.1,0.1,2.2,0.4,3.3c1.2,4.2,7.2,4.6,9.9,8c2,2.5,1.7,6.2,0.5,9.2
				c-0.7,1.8-1.7,3.7-1.2,5.7c0.3,1.2,1.1,2.1,1.4,3.3c0.9,3.1-2.2,6.2-5.3,6.6s-6.3-1.2-9.1-2.7c-2.8-1.5-5.8-3.2-9-3.1
				c-6.7,0.2-11.4,7.7-18.1,8c-1.3,0-2.6-0.2-3.5-1.2c-0.8-0.9-1-2.2-1.1-3.4c-0.3-3.1-0.2-6.2,0-9.4"/>
		</g>
		<g>
			<path class="st1" d="M455,1000.1c-0.5-1.3,0-2.8,0.8-3.9s2-1.9,3.1-2.7c2.3-1.6,5.1-3.2,7.7-2.1c1.3,0.5,2.2,1.7,3,2.8
				c2.6,3.8,4.4,8.1,6,12.5c0.5,1.3,1,2.7,0.9,4.1c-0.1,2.8-2.7,5.3-5.5,5.2c-0.8,0-1.5-0.2-2.3-0.2c-3.1-0.1-6.1,2.3-9.1,1.7
				c-2.2-0.4-3.9-2.3-4.7-4.4c-0.8-2.1-0.9-4.4-0.9-6.6c-0.1-2-0.1-4.1-0.2-6.1c-0.1-2.3-0.1-4.8,1.4-6.5"/>
		</g>
		<g>
			<g>
				<path class="st2" d="M462.6,1001.3c-0.5,1.5-0.8,3-1.1,4.5c-0.1,0.9-0.2,2,0.4,2.8c0.8,1,2.7,0.8,2.9-0.6c0.1-0.7-1-1-1.1-0.3
					c-0.8,0.2-1.2,0-1.1-0.6c0-0.2,0-0.5,0-0.7c0-0.6,0.2-1.2,0.3-1.8c0.2-1,0.5-2,0.8-3C464,1000.9,462.8,1000.6,462.6,1001.3
					L462.6,1001.3z"/>
			</g>
		</g>
		<g>
			<g>
				<path class="st2" d="M458.4,1004.6C458.4,1004.6,458.3,1004.6,458.4,1004.6C458.3,1004.8,458.5,1004.4,458.4,1004.6
					c0.1-0.2,0.3-0.2,0.4-0.3c-0.2,0-0.4,0-0.7,0c0.2,0.1,0.4,0.3,0.6,0.4c0-0.2,0-0.3,0.1-0.5c0.5-0.6-0.3-1.4-0.8-0.8
					c-0.4,0.5-0.5,1-0.4,1.6c0.1,0.2,0.3,0.4,0.6,0.4c0.4,0,0.9,0.1,1.2-0.3c0.2-0.3,0.2-0.7,0.1-1c-0.3-0.6-1.1-1-1.7-0.6
					C457.2,1004,457.8,1005,458.4,1004.6L458.4,1004.6z"/>
			</g>
		</g>
		<g>
			<g>
				<path class="st2" d="M468.8,1003C468.8,1002.9,468.8,1002.9,468.8,1003c0-0.4-0.1-0.7-0.2-1c-0.1,0.1-0.1,0.1-0.2,0
					c-0.7-0.2-1,0.9-0.3,1.1c0.5,0.2,1,0,1.3-0.3s0.2-0.9-0.3-1c-0.6-0.2-1.4,0.2-1.5,0.9C467.5,1003.4,468.6,1003.7,468.8,1003
					L468.8,1003z"/>
			</g>
		</g>
		<g>
			<g>
				<path class="st2" d="M464.3,1012.9c3.1,0.6,7.6,0.3,8-3.7c0.1-0.7-1.1-0.7-1.2,0c-0.2,3.2-4.2,3.1-6.5,2.6
					C463.9,1011.7,463.6,1012.8,464.3,1012.9L464.3,1012.9z"/>
			</g>
		</g>
	</g>
	<g>
		<g>
			<path class="st3" d="M502,1001.3c-2.3-3.4-1.2-8.6,2.3-10.8c1.6-1,3.6-1.3,5.2-2.4c3.3-2.2,3.9-6.8,6.2-10.1
				c2.7-4,7.7-5.9,12.5-6.2c3.8-0.2,8.5,1.1,9.4,4.8c0.3,1.1,0.1,2.2,0.4,3.3c1.2,4.2,7.2,4.6,9.9,8c2,2.5,1.7,6.2,0.5,9.2
				c-0.7,1.8-1.7,3.7-1.2,5.7c0.3,1.2,1.1,2.1,1.4,3.3c0.9,3.1-2.2,6.2-5.3,6.6c-3.2,0.4-6.3-1.2-9.1-2.7s-5.8-3.2-9-3.1
				c-6.7,0.2-11.4,7.7-18.1,8c-1.3,0-2.6-0.2-3.5-1.2c-0.8-0.9-1-2.2-1.1-3.4c-0.3-3.1-0.2-6.2,0-9.4"/>
		</g>
		<g>
			<path class="st1" d="M517,1000.1c-0.5-1.3,0-2.8,0.8-3.9s2-1.9,3.1-2.7c2.3-1.6,5.1-3.2,7.7-2.1c1.3,0.5,2.2,1.7,3,2.8
				c2.6,3.8,4.4,8.1,6,12.5c0.5,1.3,1,2.7,0.9,4.1c-0.1,2.8-2.7,5.3-5.5,5.2c-0.8,0-1.5-0.2-2.3-0.2c-3.1-0.1-6.1,2.3-9.1,1.7
				c-2.2-0.4-3.9-2.3-4.7-4.4c-0.8-2.1-0.9-4.4-0.9-6.6c-0.1-2-0.1-4.1-0.2-6.1c-0.1-2.3-0.1-4.8,1.4-6.5"/>
		</g>
		<g>
			<g>
				<path class="st2" d="M524.6,1001.3c-0.5,1.5-0.8,3-1.1,4.5c-0.1,0.9-0.2,2,0.4,2.8c0.8,1,2.7,0.8,2.9-0.6c0.1-0.7-1-1-1.1-0.3
					c-0.8,0.2-1.2,0-1.1-0.6c0-0.2,0-0.5,0-0.7c0-0.6,0.2-1.2,0.3-1.8c0.2-1,0.5-2,0.8-3C525.9,1000.9,524.8,1000.6,524.6,1001.3
					L524.6,1001.3z"/>
			</g>
		</g>
		<g>
			<g>
				<path class="st2" d="M520.4,1004.6C520.4,1004.6,520.3,1004.6,520.4,1004.6C520.3,1004.8,520.5,1004.4,520.4,1004.6
					c0.1-0.2,0.3-0.2,0.4-0.3c-0.2,0-0.4,0-0.7,0c0.2,0.1,0.4,0.3,0.6,0.4c0-0.2,0-0.3,0.1-0.5c0.5-0.6-0.3-1.4-0.8-0.8
					c-0.4,0.5-0.5,1-0.4,1.6c0.1,0.2,0.3,0.4,0.6,0.4c0.4,0,0.9,0.1,1.2-0.3c0.2-0.3,0.2-0.7,0.1-1c-0.3-0.6-1.1-1-1.7-0.6
					C519.2,1004,519.7,1005,520.4,1004.6L520.4,1004.6z"/>
			</g>
		</g>
		<g>
			<g>
				<path class="st2" d="M530.8,1003C530.8,1002.9,530.8,1002.9,530.8,1003c0-0.4-0.1-0.7-0.2-1c-0.1,0.1-0.1,0.1-0.2,0
					c-0.7-0.2-1,0.9-0.3,1.1c0.5,0.2,1,0,1.3-0.3s0.2-0.9-0.3-1c-0.6-0.2-1.4,0.2-1.5,0.9S530.6,1003.7,530.8,1003L530.8,1003z"/>
			</g>
		</g>
		<g>
			<g>
				<path class="st2" d="M526.3,1012.9c3.1,0.6,7.6,0.3,8-3.7c0.1-0.7-1.1-0.7-1.2,0c-0.2,3.2-4.2,3.1-6.5,2.6
					C525.9,1011.7,525.6,1012.8,526.3,1012.9L526.3,1012.9z"/>
			</g>
		</g>
	</g>
</g>
<g>
	<g>
		<path class="st4" d="M104,86.3c0,0,9.8,6.3,11.9,15.1h-9.5L104,86.3z"/>
		<path class="st4" d="M50.5,89.7c0,0-10.4,4.6-10.4,11.7h19.1C59.2,101.4,55.8,89.7,50.5,89.7z"/>
		<g>
			<path class="st3" d="M57.7,101.4h53.5c0,0,1.7-17.7-25.1-22.9l-22.6,4.3c0,0-7.2,2.3-13,6.9C50.5,89.7,56.6,96,57.7,101.4z"/>
			<path class="st4" d="M69.3,80.4l-5.9,2.4c0,0,23.6,18.3,34.1,9.3c0,0,5.7-7.6-11.5-13.5"/>
			<g>
				<g>
					<g>
						<path class="st5" d="M65.8,90.1c0.2,0.3,0.4,0.6,0.5,0.9c0.3,0.5,1.2,0,0.9-0.5c-0.2-0.3-0.4-0.6-0.5-0.9
							C66.3,89.1,65.4,89.6,65.8,90.1L65.8,90.1z"/>
					</g>
				</g>
				<g>
					<g>
						<path class="st5" d="M62.5,96.6c0.1,0.2,0.2,0.3,0.3,0.5c0.3,0.6,1.2,0.1,0.9-0.5c-0.1-0.2-0.2-0.3-0.3-0.5
							C63,95.5,62.2,96.1,62.5,96.6L62.5,96.6z"/>
					</g>
				</g>
				<g>
					<g>
						<path class="st5" d="M69,97.5c0,0.5,0.2,1,0.6,1.4c0.4,0.5,1.1-0.2,0.7-0.7c-0.2-0.2-0.2-0.4-0.3-0.7C70,96.9,69,96.9,69,97.5
							L69,97.5z"/>
					</g>
				</g>
				<g>
					<g>
						<path class="st5" d="M75.8,94.8c-0.1,0.5-0.1,0.9,0.1,1.3c0.2,0.6,1.2,0.3,1-0.3c-0.1-0.3-0.1-0.5-0.1-0.8
							C76.9,94.4,75.9,94.2,75.8,94.8L75.8,94.8z"/>
					</g>
				</g>
				<g>
					<g>
						<path class="st5" d="M86.7,98.3c0.1,0.2,0.2,0.3,0.3,0.5c0.3,0.6,1.2,0.1,0.9-0.5c-0.1-0.2-0.2-0.3-0.3-0.5
							C87.2,97.2,86.4,97.7,86.7,98.3L86.7,98.3z"/>
					</g>
				</g>
				<g>
					<g>
						<path class="st5" d="M95.4,96.9c0,0.5,0.1,0.9,0.3,1.3c0.3,0.5,1.2,0,0.9-0.5c-0.2-0.3-0.2-0.5-0.2-0.8
							C96.5,96.2,95.5,96.2,95.4,96.9L95.4,96.9z"/>
					</g>
				</g>
				<g>
					<g>
						<path class="st5" d="M101.8,89.7c0,0.3,0,0.6,0.1,0.9c0.2,0.6,1.2,0.3,1-0.3c-0.1-0.2-0.1-0.4-0.1-0.6
							C102.8,89.1,101.8,89.1,101.8,89.7L101.8,89.7z"/>
					</g>
				</g>
				<g>
					<g>
						<path class="st5" d="M103.4,98.4c0,0.2,0.1,0.4,0.1,0.6c0.1,0.6,1.1,0.4,1-0.3c0-0.2-0.1-0.4-0.1-0.6
							C104.2,97.5,103.2,97.8,103.4,98.4L103.4,98.4z"/>
					</g>
				</g>
				<g>
					<g>
						<path class="st5" d="M107.7,94.4c0.1,0.3,0.2,0.5,0.3,0.8c0.2,0.6,1.2,0.3,1-0.3c-0.1-0.3-0.2-0.5-0.3-0.8
							C108.4,93.6,107.5,93.8,107.7,94.4L107.7,94.4z"/>
					</g>
				</g>
				<g>
					<g>
						<path class="st5" d="M99.6,86.2c0.2,0.3,0.3,0.5,0.5,0.8c0.4,0.5,1.2,0,0.9-0.5c-0.2-0.3-0.3-0.5-0.5-0.8
							C100.1,85.1,99.2,85.6,99.6,86.2L99.6,86.2z"/>
					</g>
				</g>
				<g>
					<g>
						<path class="st5" d="M59.4,92.2c0,0.1,0.1,0.3,0.1,0.4c0.2,0.6,1.2,0.3,1-0.3c0-0.1-0.1-0.3-0.1-0.4
							C60.2,91.3,59.2,91.6,59.4,92.2L59.4,92.2z"/>
					</g>
				</g>
			</g>
		</g>
	</g>
	<g>
		<g>
			<path class="st6" d="M79.5,22.7c-5.4,2.5-11,5.3-14.2,10.3c-2.9,4.5-5.1,9.5-5.1,14.9c0,4.4,2.1,9.5,3.8,13.5
				c1.1,2.7,3,5.1,4,7.9c0.9,2.4,1.3,5,1.1,7.6c-0.1,1.2-0.3,2.4,0.2,3.5c0.6,1.1,1.8,1.7,3,2.2c3.1,1.3,6.3,2.6,9.4,3.8
				c2.6,1,5.9,1.9,7.8-0.1c2-2.1-0.8-7.3,1-9.7c1.1-1.5,4.7-0.5,6.2-1.5c2.1-1.4,3.3-3.7,4.3-6.1c2.9-7.2,4.3-14.9,4-22.6
				c-0.1-3.1-0.5-6.3-1.7-9.2c-1.8-4.6-5.2-8.3-9.1-11.3C90.1,22.9,87.8,21.5,79.5,22.7"/>
		</g>
		<path class="st7" d="M90.5,76.6c0,0-13.8-2.3-16.4-8.5c0,0,6.5,14.5,16.2,17C90.2,85.1,90.1,80.6,90.5,76.6z"/>
		<path class="st8" d="M99.9,43.2c0,0-8.6,3.3-1.8,13l-2.7,1.4"/>
		<circle class="st2" cx="100.9" cy="47.9" r="1.5"/>
		<circle class="st2" cx="84.9" cy="50.3" r="1.5"/>
		<path class="st8" d="M83.3,44.8c0,0,3.6-1.2,5.4,1.8"/>
		<path class="st9" d="M87.1,61.3c0,0,3.4,4.7,8.2,2.4"/>
		<path class="st0" d="M63,50.4c0,0,7.8-3.7,7.8,4.5l1.9-1.9c0,0-3.6-8.8,1.7-10.6c2.8-1,1.8-5.2,3.7-6.7c3.5-2.6,15-8.4,25.2,1.5
			c0,0-5.3-25.6-30-17c-24.3,8.5-17,32.6-8.8,41.9c0,0,2.6-0.9,1.3-2.7C63.1,56,60.8,51.4,63,50.4z"/>
		<g>
			<g>
				<path class="st10" d="M91,29.2c-1.3-1.5-2.9-2.7-4.6-3.7c-0.6-0.3-1.1,0.5-0.5,0.9c1.7,0.9,3.1,2.1,4.4,3.5
					C90.7,30.4,91.4,29.6,91,29.2L91,29.2z"/>
			</g>
		</g>
		<g>
			<g>
				<path class="st10" d="M77.2,30.1C75.6,29.4,74,29,72.3,29c-0.6,0-0.6,1,0,1c1.5,0,3,0.3,4.4,0.9C77.3,31.2,77.8,30.4,77.2,30.1
					L77.2,30.1z"/>
			</g>
		</g>
		<g>
			<g>
				<path class="st7" d="M66.5,52.6c-0.5-1.2-1.8-0.3-2,0.6c-0.1,0.6,0,1.2,0.3,1.7c0.1,0.2,0.3,0.4,0.5,0.6c0.3,0.2,1.3,0.6,1.2,1
					c-0.2,0.6,0.8,0.9,1,0.3c0.2-0.7-0.1-1.2-0.7-1.6c-0.4-0.3-0.9-0.4-1.2-0.8c-0.1-0.2-0.3-0.5-0.3-0.7c0-0.1,0.1-0.7,0.2-0.6
					C65.9,53.7,66.7,53.2,66.5,52.6L66.5,52.6z"/>
			</g>
		</g>
		<g>
			<defs>
				<path id="SVGID_1_" d="M63,50.4c0,0,7.8-3.7,7.8,4.5l1.9-1.9c0,0-3.6-8.8,1.7-10.6c2.8-1,1.8-5.2,3.7-6.7
					c3.5-2.6,15-8.4,25.2,1.5c0,0-5.3-25.6-30-17c-24.3,8.5-17,32.6-8.8,41.9c0,0,2.6-0.9,1.3-2.7C63.1,56,60.8,51.4,63,50.4z"/>
			</defs>
			<clipPath id="SVGID_2_">
				<use xlink:href="#SVGID_1_"  style="overflow:visible;"/>
			</clipPath>
			<path class="st11" d="M55,33.8c0,0,17.4-1.5,23.6,4.1l-3.5,20.2l-9.7,10c0,0-11.1-5.2-11.3-5.9C53.9,61.6,55,33.8,55,33.8z"/>
		</g>
	</g>
</g>
</svg>
