<?xml version="1.0" encoding="utf-8"?>
<!-- Generator: Adobe Illustrator 23.0.2, SVG Export Plug-In . SVG Version: 6.00 Build 0)  -->
<svg version="1.1" id="Layer_1" xmlns="http://www.w3.org/2000/svg" xmlns:xlink="http://www.w3.org/1999/xlink" x="0px" y="0px"
	 viewBox="0 0 156 120" style="enable-background:new 0 0 156 120;" xml:space="preserve">
<style type="text/css">
	.st0{fill:#3B54B9;}
	.st1{fill:#FFFFFF;}
	.st2{fill:#FF5441;}
</style>
<title>Group 13 Copy</title>
<desc>Created with Sketch.</desc>
<title>Group 13 Copy</title>
<desc>Created with Sketch.</desc>
<g>
	<path class="st0" d="M68.4,54.8c0,18.6-12.9,46.1-30.2,39.2C14.8,84.5,2,78.7,4.5,60.2c3.4-25.3,14.6-28.4,33.2-28.4
		S68.4,36.1,68.4,54.8z"/>
	<g>
		<g>
			<path class="st1" d="M22.5,55.2c0.7-0.1,2.5-0.1,3.2,0c0,0.1,0,0.3,0,0.6c0.6-0.5,1.2-0.7,2-0.7c1.3,0,2.3,0.5,3,1.5
				c0.7-1,1.8-1.5,3-1.5c2.5,0,4,1.6,4,5.3c0,2,0,4.5-0.1,5.9c-0.6,0.2-2.6,0.2-3.3,0c0-0.8,0-5,0-5.7c0-1.6-0.2-2.6-1.2-2.6
				c-0.9,0-1.3,0.8-1.3,2.1l0,0.5c0,2,0,4.3-0.1,5.7c-0.6,0.2-2.7,0.2-3.4,0c0-0.8,0-5,0-5.7c0-1.6-0.2-2.6-1.2-2.6
				c-0.8,0-1.2,0.7-1.3,1.8c0,2.8,0,6-0.1,6.5c-0.8,0.2-2.6,0.2-3.2,0C22.4,65.3,22.4,56.1,22.5,55.2z"/>
			<path class="st1" d="M41.2,50c1.1,0,2,0.9,2,2c0,1.1-0.9,2-2,2c-1.1,0-2-0.9-2-2C39.1,50.8,40,50,41.2,50z M39.5,55.2
				c0.7-0.1,2.6-0.1,3.3,0c0.1,0.9,0.1,10.2,0,11c-0.8,0.2-2.7,0.2-3.3,0C39.4,65.4,39.4,56.1,39.5,55.2z"/>
			<path class="st1" d="M44.8,55.2c0.7-0.1,2.6-0.1,3.3,0c0,0.1,0,0.3,0,0.6c0.6-0.5,1.2-0.7,2-0.7c2.6,0,4.1,1.6,4.1,5.3
				c0,2,0,4.5-0.1,5.9c-0.6,0.2-2.6,0.2-3.3,0c0-0.8,0-5,0-5.7c0-1.6-0.2-2.6-1.3-2.6c-0.9,0-1.2,0.8-1.3,2c0,2.8,0,5.8-0.1,6.3
				c-0.6,0.1-2.4,0.1-3.3,0C44.7,65.4,44.7,56.1,44.8,55.2z"/>
		</g>
	</g>
	<g>
		<path class="st2" d="M150.8,60.2c4,19.7-15.1,32.9-33.7,33.7C92.2,95,86.9,78.5,83.4,60.2c-3.1-16.1,15.8-32.3,34-28.4
			C133.8,35.3,147.1,42,150.8,60.2z"/>
		<g>
			<g>
				<path class="st1" d="M99,55.2c0.7-0.1,2.5-0.1,3.2,0c0,0.1,0,0.3,0,0.6c0.6-0.5,1.2-0.7,2-0.7c1.3,0,2.3,0.5,3,1.5
					c0.7-1,1.8-1.5,3-1.5c2.5,0,4,1.6,4,5.3c0,2,0,4.5-0.1,5.9c-0.6,0.2-2.6,0.2-3.3,0c0-0.8,0-5,0-5.7c0-1.6-0.2-2.6-1.2-2.6
					c-0.9,0-1.3,0.8-1.3,2.1l0,0.5c0,2,0,4.3-0.1,5.7c-0.6,0.2-2.7,0.2-3.4,0c0-0.8,0-5,0-5.7c0-1.6-0.2-2.6-1.2-2.6
					c-0.8,0-1.2,0.7-1.3,1.8c0,2.8,0,6-0.1,6.5c-0.8,0.2-2.6,0.2-3.2,0C98.9,65.3,98.9,56.1,99,55.2z"/>
				<path class="st1" d="M119.4,59.3c0.8,0,1.5,0.2,2,0.5c-0.2-1.3-0.8-1.8-2.4-1.8c-0.7,0-1.7,0.2-2.7,0.4
					c-0.2-0.7-0.4-2.1-0.4-2.9c0.8-0.3,2.6-0.4,3.8-0.4c3.2,0.2,4.9,1.8,5,4.6c0.1,1.7,0.1,5.6,0,6.6c-0.7,0.1-2.5,0.1-3.2,0l0-0.4
					c-0.6,0.3-1.3,0.5-2.1,0.5c-2.7,0-4-1.2-4-3.5C115.3,60.5,116.7,59.3,119.4,59.3z M120.1,63.7c0.8,0,1.3-0.4,1.3-1s-0.5-1-1.3-1
					c-1,0-1.5,0.4-1.5,1C118.6,63.4,119.1,63.7,120.1,63.7z"/>
				<path class="st1" d="M128.8,60.6c-1.2-1.4-2.8-3.4-3.1-3.9c0.5-0.5,1.9-1.6,2.5-1.9c0.4,0.4,1.7,1.9,2.7,3.3
					c0.9-1.3,2-2.8,2.4-3.3c0.7,0.3,2.2,1.2,2.7,1.7c-0.3,0.6-1.9,2.8-3.1,4.2c1.2,1.4,2.9,3.5,3.3,4c-0.5,0.5-2,1.6-2.6,1.9
					c-0.4-0.4-1.7-2-2.8-3.4c-1,1.4-2.1,2.9-2.5,3.4c-0.7-0.3-2.2-1.2-2.7-1.7C125.8,64.4,127.5,62,128.8,60.6z"/>
			</g>
		</g>
	</g>
</g>
</svg>
