<?xml version="1.0" encoding="utf-8"?>
<!-- Generator: Adobe Illustrator 23.0.2, SVG Export Plug-In . SVG Version: 6.00 Build 0)  -->
<svg version="1.1" id="Layer_1" xmlns="http://www.w3.org/2000/svg" xmlns:xlink="http://www.w3.org/1999/xlink" x="0px" y="0px"
	 viewBox="0 0 156 120" style="enable-background:new 0 0 156 120;" xml:space="preserve">
<style type="text/css">
	.st0{fill:#FEBDA9;}
	.st1{clip-path:url(#SVGID_2_);fill:#F29383;}
	.st2{fill:#FF5441;}
	.st3{fill:#562622;}
	.st4{fill:#1E1915;}
	.st5{fill:#3F3F3F;}
	.st6{fill:#2D2D2D;}
</style>
<g>
	<path class="st0" d="M83.1,32L106-1.1h51v16.6c0,0-42.1,22.9-47.2,33.1l-16.6,8.9L80.5,41L83.1,32z"/>
	<g>
		<defs>
			<path id="SVGID_1_" d="M101.1,71.8l-2.7-22c0,0,42.1-58.6,68.8-51l-3.8,45.9L101.1,71.8z"/>
		</defs>
		<clipPath id="SVGID_2_">
			<use xlink:href="#SVGID_1_"  style="overflow:visible;"/>
		</clipPath>
		<path class="st1" d="M83.1,32L106-1.1h51v16.6c0,0-42.1,22.9-47.2,33.1l-16.6,8.9L80.5,41L83.1,32z"/>
	</g>
	<path class="st2" d="M18.1,24.4c0,0,3.8-6.4,12.7-5.1s34.4,14,52.3,12.7c6.4-0.5,0,17.8,22.9,14c10.1-1.7-1,26.7-12.7,33.1
		c-0.3,0.2-39.5-14-39.5-14L18.1,24.4z"/>
	<path class="st3" d="M15.5,25.7c0,0,2.6-6.7,14-3.8c15.3,3.8,49.3,28,56.1,35.7c8.9,10.2,14,21.7,3.8,25.5L32.1,34.6L15.5,25.7z"/>
	<path class="st4" d="M15.5,25.7c0,0,6.4-10.2,34.4,8.9C73.5,50.6,98.4,74.1,89.4,83s-28,3.8-35.7-11.5C43,50-1,49.9,15.5,25.7z"/>
	<g>
		<path class="st5" d="M27,29c0.2,0,0.4,0.1,0.5,0.2c0.6,0.5,1.1,1.3,1.2,2.1c0,0.1,0,0.2,0,0.3c-0.1,0.1-0.2,0.1-0.3,0.2
			c-0.9,0.1-2.1-0.4-2.7-1.2C25,29.7,26,29,27,29z"/>
		<path class="st5" d="M49.9,40.5c0.2,0,0.4,0.1,0.5,0.2c0.6,0.5,1.1,1.3,1.2,2.1c0,0.1,0,0.2,0,0.3c-0.1,0.1-0.2,0.1-0.3,0.2
			c-0.9,0.1-2.1-0.4-2.7-1.2C47.9,41.1,48.9,40.4,49.9,40.5z"/>
		<path class="st5" d="M62.6,73.7c0.2,0,0.4,0.1,0.5,0.2c0.6,0.5,1.1,1.3,1.2,2.1c0,0.1,0,0.2,0,0.3c-0.1,0.1-0.2,0.1-0.3,0.2
			c-0.9,0.1-2.1-0.4-2.7-1.2C60.7,74.3,61.7,73.6,62.6,73.7z"/>
		<path class="st5" d="M85.6,76.2c0.2,0,0.4,0.1,0.5,0.2c0.6,0.5,1.1,1.3,1.2,2.1c0,0.1,0,0.2,0,0.3c-0.1,0.1-0.2,0.1-0.3,0.2
			c-0.9,0.1-2.1-0.4-2.7-1.2C83.6,76.8,84.6,76.1,85.6,76.2z"/>
		<path class="st5" d="M74.1,82.6c0.2,0,0.4,0.1,0.5,0.2c0.6,0.5,1.1,1.3,1.2,2.1c0,0.1,0,0.2,0,0.3c-0.1,0.1-0.2,0.1-0.3,0.2
			c-0.9,0.1-2.1-0.4-2.7-1.2C72.1,83.2,73.1,82.5,74.1,82.6z"/>
		<path class="st5" d="M16.8,35.9c0.2,0,0.4,0.1,0.6,0.2c0.6,0.4,1.1,0.9,1.6,1.5c0.1,0.1,0.2,0.3,0.2,0.4c0,0.2,0,0.3-0.1,0.4
			c-0.1,0-0.2,0.1-0.2,0.1c-0.4,0-0.9,0-1.3-0.1c-0.3-0.1-0.5-0.2-0.8-0.4c-0.2-0.2-0.4-0.5-0.4-0.8C16.4,36.9,16.2,35.9,16.8,35.9z
			"/>
		<path class="st5" d="M29.3,39.2c0,0.1,0,0.3,0,0.5s-0.1,0.3-0.3,0.4c-0.1,0.1-0.3,0-0.5,0c-0.8-0.2-1.9-0.9-1.7-1.8
			c0.2-0.9,1.1-1,1.7-0.4C29,38.1,29.2,38.7,29.3,39.2z"/>
		<path class="st5" d="M25.5,44.3c0,0.1,0,0.3,0,0.5c0,0.1-0.1,0.3-0.3,0.4c-0.1,0.1-0.3,0-0.5,0c-0.8-0.2-1.9-0.9-1.7-1.8
			c0.2-0.9,1.1-1,1.7-0.4C25.2,43.2,25.4,43.8,25.5,44.3z"/>
		<path class="st5" d="M35.3,38.1c0.2,0.1,0.3,0.3,0.4,0.5c0.1,0.2,0.2,0.4,0.1,0.6c-0.1,0.2-0.2,0.4-0.4,0.5
			c-0.2,0.1-0.4,0.1-0.6,0.1c-0.3,0-0.7-0.1-0.9-0.3c-0.3-0.2-0.4-0.5-0.5-0.8c0-0.1,0-0.3,0-0.4C33.7,37.2,34.8,37.7,35.3,38.1z"/>
		<path class="st5" d="M50.6,54.7c0.2,0.1,0.3,0.3,0.4,0.5c0.1,0.2,0.2,0.4,0.1,0.6c-0.1,0.2-0.2,0.4-0.4,0.5s-0.4,0.1-0.6,0.1
			c-0.3,0-0.7-0.1-0.9-0.3s-0.4-0.5-0.5-0.8c0-0.1,0-0.3,0-0.4C49,53.8,50.1,54.3,50.6,54.7z"/>
		<path class="st5" d="M58.2,48.3c0.2,0.1,0.3,0.3,0.4,0.5c0.1,0.2,0.2,0.4,0.1,0.6c-0.1,0.2-0.2,0.4-0.4,0.5S58,50,57.8,50
			c-0.3,0-0.7-0.1-0.9-0.3c-0.3-0.2-0.4-0.5-0.5-0.8c0-0.1,0-0.3,0-0.4C56.6,47.4,57.7,47.9,58.2,48.3z"/>
		<path class="st5" d="M63.3,61.1c0.2,0.1,0.3,0.3,0.4,0.5c0.1,0.2,0.2,0.4,0.1,0.6c-0.1,0.2-0.2,0.4-0.4,0.5s-0.4,0.1-0.6,0.1
			c-0.3,0-0.7-0.1-0.9-0.3c-0.3-0.2-0.4-0.5-0.5-0.8c0-0.1,0-0.3,0-0.4C61.7,60.2,62.8,60.7,63.3,61.1z"/>
		<path class="st5" d="M60.8,67.4c0.2,0.1,0.3,0.3,0.4,0.5c0.1,0.2,0.2,0.4,0.1,0.6c-0.1,0.2-0.2,0.4-0.4,0.5
			c-0.2,0.1-0.4,0.1-0.6,0.1c-0.3,0-0.7-0.1-0.9-0.3c-0.3-0.2-0.4-0.5-0.5-0.8c0-0.1,0-0.3,0-0.4C59.2,66.5,60.3,67,60.8,67.4z"/>
		<path class="st5" d="M72.3,71.2c0.2,0.1,0.3,0.3,0.4,0.5c0.1,0.2,0.2,0.4,0.1,0.6c-0.1,0.2-0.2,0.4-0.4,0.5
			c-0.2,0.1-0.4,0.1-0.6,0.1c-0.3,0-0.7-0.1-0.9-0.3c-0.3-0.2-0.4-0.5-0.5-0.8c0-0.1,0-0.3,0-0.4C70.6,70.3,71.8,70.9,72.3,71.2z"/>
		<path class="st5" d="M73.5,63.6c0.2,0.1,0.3,0.3,0.4,0.5c0.1,0.2,0.2,0.4,0.1,0.6c-0.1,0.2-0.2,0.4-0.4,0.5
			c-0.2,0.1-0.4,0.1-0.6,0.1c-0.3,0-0.7-0.1-0.9-0.3c-0.3-0.2-0.4-0.5-0.5-0.8c0-0.1,0-0.3,0-0.4C71.9,62.7,73,63.2,73.5,63.6z"/>
		<path class="st5" d="M68.4,54.7c0.2,0.1,0.3,0.3,0.4,0.5c0.1,0.2,0.2,0.4,0.1,0.6c-0.1,0.2-0.2,0.4-0.4,0.5s-0.4,0.1-0.6,0.1
			c-0.3,0-0.7-0.1-0.9-0.3c-0.3-0.2-0.4-0.5-0.5-0.8c0-0.1,0-0.3,0-0.4C66.8,53.8,67.9,54.3,68.4,54.7z"/>
		<path class="st5" d="M79.9,70c0.2,0.1,0.3,0.3,0.4,0.5c0.1,0.2,0.2,0.4,0.1,0.6c-0.1,0.2-0.2,0.4-0.4,0.5
			c-0.2,0.1-0.4,0.1-0.6,0.1c-0.3,0-0.7-0.1-0.9-0.3s-0.4-0.5-0.5-0.8c0-0.1,0-0.3,0-0.4C78.3,69.1,79.4,69.6,79.9,70z"/>
		<path class="st5" d="M71,77.6c0.2,0.1,0.3,0.3,0.4,0.5c0.1,0.2,0.2,0.4,0.1,0.6c-0.1,0.2-0.2,0.4-0.4,0.5
			c-0.2,0.1-0.4,0.1-0.6,0.1c-0.3,0-0.7-0.1-0.9-0.3c-0.3-0.2-0.4-0.5-0.5-0.8c0-0.1,0-0.3,0-0.4C69.4,76.7,70.5,77.2,71,77.6z"/>
		<path class="st5" d="M81.2,78.9c0.2,0.1,0.3,0.3,0.4,0.5c0.1,0.2,0.2,0.4,0.1,0.6c-0.1,0.2-0.2,0.4-0.4,0.5
			c-0.2,0.1-0.4,0.1-0.6,0.1c-0.3,0-0.7-0.1-0.9-0.3s-0.4-0.5-0.5-0.8c0-0.1,0-0.3,0-0.4C79.6,78,80.7,78.5,81.2,78.9z"/>
		<path class="st5" d="M33.7,32.8c-0.3,0.2-0.5,0.6-0.4,0.9c0,0.1,0.1,0.2,0.2,0.3c0.1,0.1,0.2,0.1,0.3,0.1c0.5,0.1,0.9,0.2,1.4,0
			c0.1,0,0.2-0.1,0.2-0.2c0.1-0.1,0.1-0.2,0.1-0.3c0.1-0.4-0.2-1-0.6-1.2C34.6,32.4,34,32.7,33.7,32.8z"/>
		<path class="st5" d="M23.5,35.4c-0.3,0.2-0.5,0.6-0.4,0.9c0,0.1,0.1,0.2,0.2,0.3c0.1,0.1,0.2,0.1,0.3,0.1c0.5,0.1,0.9,0.2,1.4,0
			c0.1,0,0.2-0.1,0.2-0.2c0.1-0.1,0.1-0.2,0.1-0.3c0.1-0.4-0.2-1-0.6-1.2C24.4,35,23.8,35.2,23.5,35.4z"/>
		<path class="st5" d="M40.7,36.3c-0.1,0-0.1,0-0.2,0c-0.1,0-0.1,0.1-0.2,0.1c-0.3,0.3-0.5,0.8-0.4,1.2c0,0.1,0,0.2,0.1,0.3
			c0.1,0,0.1,0.1,0.2,0.1c0.2,0.1,0.5,0.1,0.7,0.1c0.3,0,0.6,0.1,0.8-0.1c0.2-0.1,0.4-0.4,0.4-0.6c0-0.3-0.1-0.5-0.3-0.7
			c-0.1-0.1-0.2-0.3-0.3-0.4C41.3,36.3,40.9,36.3,40.7,36.3z"/>
		<path class="st5" d="M28.9,45.6c0.1,0,0.2,0,0.3,0.1c0.1,0.1,0.1,0.2,0.2,0.3c0.1,0.2,0.1,0.4,0.1,0.6c0,0.1,0,0.2-0.1,0.2
			c-0.1,0.1-0.2,0.1-0.4,0.1c-0.5,0-0.9-0.2-1.3-0.4c-0.3-0.2-0.3-0.6,0-0.8C28,45.6,28.6,45.6,28.9,45.6z"/>
		<path class="st5" d="M40.7,47.7c0.1,0.2,0.4,0.3,0.6,0.4c0.6,0.2,1.2,0.4,1.8,0.5c0.1,0,0.2,0,0.2,0c0.1,0,0.1-0.2,0.1-0.3
			s0-0.2-0.1-0.3c-0.3-0.7-1-1.5-1.7-1.9C41.1,45.8,40.3,47.1,40.7,47.7z"/>
		<path class="st5" d="M33.1,43.8c0.1,0.2,0.4,0.3,0.6,0.4c0.6,0.2,1.2,0.4,1.8,0.5c0.1,0,0.2,0,0.2,0c0.1,0,0.1-0.2,0.1-0.3
			c0-0.1,0-0.2-0.1-0.3c-0.3-0.7-1-1.5-1.7-1.9C33.4,42,32.7,43.3,33.1,43.8z"/>
		<path class="st5" d="M56,56.6c0.1,0.2,0.4,0.3,0.6,0.4c0.6,0.2,1.2,0.4,1.8,0.5c0.1,0,0.2,0,0.2,0c0.1,0,0.1-0.2,0.1-0.3
			c0-0.1,0-0.2-0.1-0.3c-0.3-0.7-1-1.5-1.7-1.9C56.4,54.8,55.6,56,56,56.6z"/>
		<path class="st5" d="M16.5,31.1c0.1,0.2,0.4,0.3,0.6,0.4c0.6,0.2,1.2,0.4,1.8,0.5c0.1,0,0.2,0,0.2,0c0.1,0,0.1-0.2,0.1-0.3
			s0-0.2-0.1-0.3c-0.3-0.7-1-1.5-1.7-1.9C16.8,29.3,16.1,30.5,16.5,31.1z"/>
	</g>
	<g>
		<path class="st6" d="M27,27.8c0.2,0,0.4,0.1,0.5,0.2c0.6,0.5,1.1,1.3,1.2,2.1c0,0.1,0,0.2,0,0.3c-0.1,0.1-0.2,0.1-0.3,0.2
			c-0.9,0.1-2.1-0.4-2.7-1.2C25,28.4,26,27.7,27,27.8z"/>
		<path class="st6" d="M49.9,39.2c0.2,0,0.4,0.1,0.5,0.2c0.6,0.5,1.1,1.3,1.2,2.1c0,0.1,0,0.2,0,0.3c-0.1,0.1-0.2,0.1-0.3,0.2
			c-0.9,0.1-2.1-0.4-2.7-1.2C47.9,39.9,48.9,39.2,49.9,39.2z"/>
		<path class="st6" d="M62.6,72.4c0.2,0,0.4,0.1,0.5,0.2c0.6,0.5,1.1,1.3,1.2,2.1c0,0.1,0,0.2,0,0.3c-0.1,0.1-0.2,0.1-0.3,0.2
			c-0.9,0.1-2.1-0.4-2.7-1.2C60.7,73,61.7,72.3,62.6,72.4z"/>
		<path class="st6" d="M85.6,74.9c0.2,0,0.4,0.1,0.5,0.2c0.6,0.5,1.1,1.3,1.2,2.1c0,0.1,0,0.2,0,0.3c-0.1,0.1-0.2,0.1-0.3,0.2
			c-0.9,0.1-2.1-0.4-2.7-1.2C83.6,75.6,84.6,74.8,85.6,74.9z"/>
		<path class="st6" d="M74.1,81.3c0.2,0,0.4,0.1,0.5,0.2c0.6,0.5,1.1,1.3,1.2,2.1c0,0.1,0,0.2,0,0.3C75.7,84,75.6,84,75.4,84
			c-0.9,0.1-2.1-0.4-2.7-1.2C72.1,81.9,73.1,81.2,74.1,81.3z"/>
		<path class="st6" d="M16.8,34.7c0.2,0,0.4,0.1,0.6,0.2c0.6,0.4,1.1,0.9,1.6,1.5c0.1,0.1,0.2,0.3,0.2,0.4s0,0.3-0.1,0.4
			c-0.1,0-0.2,0.1-0.2,0.1c-0.4,0-0.9,0-1.3-0.1c-0.3-0.1-0.5-0.2-0.8-0.4c-0.2-0.2-0.4-0.5-0.4-0.8C16.4,35.6,16.2,34.7,16.8,34.7z
			"/>
		<path class="st6" d="M29.3,37.9c0,0.1,0,0.3,0,0.5s-0.1,0.3-0.3,0.4c-0.1,0.1-0.3,0-0.5,0c-0.8-0.2-1.9-0.9-1.7-1.8
			c0.2-0.9,1.1-1,1.7-0.4C29,36.9,29.2,37.4,29.3,37.9z"/>
		<path class="st6" d="M25.5,43c0,0.1,0,0.3,0,0.5s-0.1,0.3-0.3,0.4c-0.1,0.1-0.3,0-0.5,0c-0.8-0.2-1.9-0.9-1.7-1.8
			c0.2-0.9,1.1-1,1.7-0.4C25.2,42,25.4,42.5,25.5,43z"/>
		<path class="st6" d="M35.3,36.8c0.2,0.1,0.3,0.3,0.4,0.5c0.1,0.2,0.2,0.4,0.1,0.6c-0.1,0.2-0.2,0.4-0.4,0.5s-0.4,0.1-0.6,0.1
			c-0.3,0-0.7-0.1-0.9-0.3c-0.3-0.2-0.4-0.5-0.5-0.8c0-0.1,0-0.3,0-0.4C33.7,35.9,34.8,36.4,35.3,36.8z"/>
		<path class="st6" d="M50.6,53.4c0.2,0.1,0.3,0.3,0.4,0.5c0.1,0.2,0.2,0.4,0.1,0.6c-0.1,0.2-0.2,0.4-0.4,0.5s-0.4,0.1-0.6,0.1
			c-0.3,0-0.7-0.1-0.9-0.3c-0.3-0.2-0.4-0.5-0.5-0.8c0-0.1,0-0.3,0-0.4C49,52.5,50.1,53,50.6,53.4z"/>
		<path class="st6" d="M58.2,47c0.2,0.1,0.3,0.3,0.4,0.5c0.1,0.2,0.2,0.4,0.1,0.6c-0.1,0.2-0.2,0.4-0.4,0.5s-0.4,0.1-0.6,0.1
			c-0.3,0-0.7-0.1-0.9-0.3s-0.4-0.5-0.5-0.8c0-0.1,0-0.3,0-0.4C56.6,46.1,57.7,46.6,58.2,47z"/>
		<path class="st6" d="M63.3,59.8c0.2,0.1,0.3,0.3,0.4,0.5c0.1,0.2,0.2,0.4,0.1,0.6c-0.1,0.2-0.2,0.4-0.4,0.5s-0.4,0.1-0.6,0.1
			c-0.3,0-0.7-0.1-0.9-0.3s-0.4-0.5-0.5-0.8c0-0.1,0-0.3,0-0.4C61.7,58.9,62.8,59.4,63.3,59.8z"/>
		<path class="st6" d="M60.8,66.1c0.2,0.1,0.3,0.3,0.4,0.5c0.1,0.2,0.2,0.4,0.1,0.6c-0.1,0.2-0.2,0.4-0.4,0.5
			c-0.2,0.1-0.4,0.1-0.6,0.1c-0.3,0-0.7-0.1-0.9-0.3C59.2,67.3,59,67,59,66.7c0-0.1,0-0.3,0-0.4C59.2,65.2,60.3,65.8,60.8,66.1z"/>
		<path class="st6" d="M72.3,70c0.2,0.1,0.3,0.3,0.4,0.5s0.2,0.4,0.1,0.6c-0.1,0.2-0.2,0.4-0.4,0.5c-0.2,0.1-0.4,0.1-0.6,0.1
			c-0.3,0-0.7-0.1-0.9-0.3s-0.4-0.5-0.5-0.8c0-0.1,0-0.3,0-0.4C70.6,69.1,71.8,69.6,72.3,70z"/>
		<path class="st6" d="M73.5,62.3c0.2,0.1,0.3,0.3,0.4,0.5c0.1,0.2,0.2,0.4,0.1,0.6c-0.1,0.2-0.2,0.4-0.4,0.5S73.3,64,73.1,64
			c-0.3,0-0.7-0.1-0.9-0.3c-0.3-0.2-0.4-0.5-0.5-0.8c0-0.1,0-0.3,0-0.4C71.9,61.4,73,61.9,73.5,62.3z"/>
		<path class="st6" d="M68.4,53.4c0.2,0.1,0.3,0.3,0.4,0.5c0.1,0.2,0.2,0.4,0.1,0.6c-0.1,0.2-0.2,0.4-0.4,0.5s-0.4,0.1-0.6,0.1
			c-0.3,0-0.7-0.1-0.9-0.3c-0.3-0.2-0.4-0.5-0.5-0.8c0-0.1,0-0.3,0-0.4C66.8,52.5,67.9,53,68.4,53.4z"/>
		<path class="st6" d="M79.9,68.7c0.2,0.1,0.3,0.3,0.4,0.5c0.1,0.2,0.2,0.4,0.1,0.6c-0.1,0.2-0.2,0.4-0.4,0.5
			c-0.2,0.1-0.4,0.1-0.6,0.1c-0.3,0-0.7-0.1-0.9-0.3c-0.3-0.2-0.4-0.5-0.5-0.8c0-0.1,0-0.3,0-0.4C78.3,67.8,79.4,68.3,79.9,68.7z"/>
		<path class="st6" d="M71,76.3c0.2,0.1,0.3,0.3,0.4,0.5c0.1,0.2,0.2,0.4,0.1,0.6c-0.1,0.2-0.2,0.4-0.4,0.5C71,78,70.8,78,70.6,78
			c-0.3,0-0.7-0.1-0.9-0.3c-0.3-0.2-0.4-0.5-0.5-0.8c0-0.1,0-0.3,0-0.4C69.4,75.4,70.5,75.9,71,76.3z"/>
		<path class="st6" d="M81.2,77.6c0.2,0.1,0.3,0.3,0.4,0.5c0.1,0.2,0.2,0.4,0.1,0.6c-0.1,0.2-0.2,0.4-0.4,0.5
			c-0.2,0.1-0.4,0.1-0.6,0.1c-0.3,0-0.7-0.1-0.9-0.3c-0.3-0.2-0.4-0.5-0.5-0.8c0-0.1,0-0.3,0-0.4C79.6,76.7,80.7,77.2,81.2,77.6z"/>
		<path class="st6" d="M33.7,31.6c-0.3,0.2-0.5,0.6-0.4,0.9c0,0.1,0.1,0.2,0.2,0.3c0.1,0.1,0.2,0.1,0.3,0.1c0.5,0.1,0.9,0.2,1.4,0
			c0.1,0,0.2-0.1,0.2-0.2c0.1-0.1,0.1-0.2,0.1-0.3c0.1-0.4-0.2-1-0.6-1.2C34.6,31.2,34,31.4,33.7,31.6z"/>
		<path class="st6" d="M23.5,34.1c-0.3,0.2-0.5,0.6-0.4,0.9c0,0.1,0.1,0.2,0.2,0.3c0.1,0.1,0.2,0.1,0.3,0.1c0.5,0.1,0.9,0.2,1.4,0
			c0.1,0,0.2-0.1,0.2-0.2c0.1-0.1,0.1-0.2,0.1-0.3c0.1-0.4-0.2-1-0.6-1.2C24.4,33.7,23.8,33.9,23.5,34.1z"/>
		<path class="st6" d="M40.7,35c-0.1,0-0.1,0-0.2,0c-0.1,0-0.1,0.1-0.2,0.1c-0.3,0.3-0.5,0.8-0.4,1.2c0,0.1,0,0.2,0.1,0.3
			c0.1,0,0.1,0.1,0.2,0.1c0.2,0.1,0.5,0.1,0.7,0.1c0.3,0,0.6,0.1,0.8-0.1c0.2-0.1,0.4-0.4,0.4-0.6c0-0.3-0.1-0.5-0.3-0.7
			c-0.1-0.1-0.2-0.3-0.3-0.4C41.3,35,40.9,35,40.7,35z"/>
		<path class="st6" d="M28.9,44.4c0.1,0,0.2,0,0.3,0.1c0.1,0.1,0.1,0.2,0.2,0.3c0.1,0.2,0.1,0.4,0.1,0.6c0,0.1,0,0.2-0.1,0.2
			c-0.1,0.1-0.2,0.1-0.4,0.1c-0.5,0-0.9-0.2-1.3-0.4c-0.3-0.2-0.3-0.6,0-0.8C28,44.3,28.6,44.3,28.9,44.4z"/>
		<path class="st6" d="M40.7,46.4c0.1,0.2,0.4,0.3,0.6,0.4c0.6,0.2,1.2,0.4,1.8,0.5c0.1,0,0.2,0,0.2,0c0.1,0,0.1-0.2,0.1-0.3
			s0-0.2-0.1-0.3c-0.3-0.7-1-1.5-1.7-1.9C41.1,44.6,40.3,45.8,40.7,46.4z"/>
		<path class="st6" d="M33.1,42.6c0.1,0.2,0.4,0.3,0.6,0.4c0.6,0.2,1.2,0.4,1.8,0.5c0.1,0,0.2,0,0.2,0c0.1,0,0.1-0.2,0.1-0.3
			c0-0.1,0-0.2-0.1-0.3c-0.3-0.7-1-1.5-1.7-1.9C33.4,40.7,32.7,42,33.1,42.6z"/>
		<path class="st6" d="M56,55.3c0.1,0.2,0.4,0.3,0.6,0.4c0.6,0.2,1.2,0.4,1.8,0.5c0.1,0,0.2,0,0.2,0c0.1,0,0.1-0.2,0.1-0.3
			s0-0.2-0.1-0.3c-0.3-0.7-1-1.5-1.7-1.9C56.4,53.5,55.6,54.7,56,55.3z"/>
		<path class="st6" d="M16.5,29.8c0.1,0.2,0.4,0.3,0.6,0.4c0.6,0.2,1.2,0.4,1.8,0.5c0.1,0,0.2,0,0.2,0c0.1,0,0.1-0.2,0.1-0.3
			s0-0.2-0.1-0.3c-0.3-0.7-1-1.5-1.7-1.9C16.8,28,16.1,29.2,16.5,29.8z"/>
	</g>
</g>
<path class="st6" d="M108,88"/>
</svg>
